<?xml version="1.0" standalone="no"?>
<!DOCTYPE svg PUBLIC "-//W3C//DTD SVG 20010904//EN"
 "http://www.w3.org/TR/2001/REC-SVG-20010904/DTD/svg10.dtd">
<svg version="1.0" xmlns="http://www.w3.org/2000/svg"
 width="313.000000pt" height="313.000000pt" viewBox="0 0 313.000000 313.000000"
 preserveAspectRatio="xMidYMid meet">
<metadata>
Created by potrace 1.14, written by Peter Selinger 2001-2017
</metadata>
<g transform="translate(0.000000,313.000000) scale(0.100000,-0.100000)"
fill="#000000" stroke="none">
<path d="M1345 3114 c-300 -45 -555 -160 -790 -355 -81 -68 -185 -175 -224
-232 -9 -12 -23 -31 -33 -41 -10 -11 -20 -28 -24 -38 -3 -10 -10 -18 -15 -18
-5 0 -9 -5 -9 -11 0 -6 -9 -23 -20 -39 -38 -53 -118 -226 -148 -320 -63 -193
-81 -317 -77 -520 4 -183 9 -224 41 -350 109 -425 377 -777 752 -988 50 -29
94 -52 97 -52 2 0 28 -11 57 -24 88 -41 253 -90 343 -102 28 -3 54 -9 60 -12
15 -10 360 -11 402 -2 21 5 54 11 73 14 112 17 227 51 348 102 112 48 157 73
265 146 109 73 130 91 239 201 231 233 393 563 435 882 10 78 10 346 0 410 -4
28 -10 66 -13 85 -23 138 -86 316 -166 462 -82 151 -143 232 -273 363 -232
232 -509 374 -855 437 -88 16 -364 17 -465 2z"/>
</g>
</svg>
