<svg xmlns="http://www.w3.org/2000/svg" xmlns:xlink="http://www.w3.org/1999/xlink"><defs><clipPath id="clip0"><path fill="#fff" d="M0 0h304v217H0z"/></clipPath><clipPath id="clip0"><path fill="#fff" d="M0 0h304v217H0z"/></clipPath><clipPath id="clip0"><path fill="#fff" d="M0 0h304v217H0z"/></clipPath></defs><symbol id="domashka__logo" viewBox="0 0 290 33"><path d="M8.24 25.828c-1.6 0-3.018-.373-4.255-1.12-1.216-.768-2.176-1.813-2.88-3.136C.4 20.228.049 18.692.049 16.964c0-1.75.373-3.285 1.12-4.608A8.201 8.201 0 014.305 9.22c1.322-.768 2.848-1.152 4.576-1.152 1.706 0 3.221.384 4.544 1.152a7.978 7.978 0 013.104 3.136c.768 1.323 1.152 2.859 1.152 4.608v6.912c0 1.685-.374 3.21-1.12 4.576a8.469 8.469 0 01-3.136 3.296c-1.323.81-2.859 1.216-4.608 1.216-1.515 0-2.934-.298-4.256-.896a8.951 8.951 0 01-3.36-2.624c-.278-.363-.384-.736-.32-1.12.085-.384.298-.693.64-.928.384-.256.778-.341 1.184-.256.426.085.768.299 1.024.64a5.9 5.9 0 002.176 1.696c.874.405 1.866.608 2.976.608a5.549 5.549 0 002.816-.736c.874-.49 1.568-1.216 2.08-2.176.512-.96.768-2.133.768-3.52v-1.568a7.735 7.735 0 01-2.624 2.752c-1.088.662-2.315.992-3.68.992zm.64-2.88c1.11 0 2.091-.256 2.945-.768a5.258 5.258 0 001.984-2.112c.49-.896.736-1.93.736-3.104 0-1.173-.246-2.208-.736-3.104a5.209 5.209 0 00-1.984-2.144c-.854-.512-1.835-.768-2.944-.768-1.11 0-2.091.256-2.944.768-.854.512-1.526 1.227-2.016 2.144-.491.896-.736 1.93-.736 3.104 0 1.174.245 2.208.736 3.104.49.896 1.162 1.6 2.016 2.112.853.512 1.834.768 2.944.768zM30.474 25.828c-1.728 0-3.253-.373-4.576-1.12a8.505 8.505 0 01-3.136-3.136c-.746-1.344-1.12-2.88-1.12-4.608 0-1.75.374-3.285 1.12-4.608a8.2 8.2 0 013.136-3.136c1.323-.768 2.848-1.152 4.576-1.152 1.707 0 3.222.384 4.544 1.152a7.978 7.978 0 013.104 3.136c.768 1.323 1.152 2.859 1.152 4.608 0 1.728-.373 3.264-1.12 4.608a8.266 8.266 0 01-3.104 3.136c-1.322.747-2.848 1.12-4.576 1.12zm0-2.88c1.11 0 2.091-.256 2.944-.768a5.258 5.258 0 001.984-2.112c.491-.896.736-1.93.736-3.104 0-1.173-.245-2.208-.736-3.104a5.21 5.21 0 00-1.984-2.144c-.853-.512-1.834-.768-2.944-.768-1.109 0-2.09.256-2.944.768-.853.512-1.525 1.227-2.016 2.144-.49.896-.736 1.93-.736 3.104 0 1.174.246 2.208.736 3.104.491.896 1.163 1.6 2.016 2.112.854.512 1.835.768 2.944.768zM45.764 25.7c-.47 0-.864-.15-1.184-.448-.298-.32-.448-.714-.448-1.184V9.828c0-.49.15-.885.448-1.184.32-.299.715-.448 1.184-.448.683 0 1.259.33 1.728.992l6.624 9.568 6.624-9.568c.47-.661 1.045-.992 1.728-.992.49 0 .885.15 1.184.448.299.299.448.693.448 1.184v14.24c0 .47-.15.864-.448 1.184-.299.299-.693.448-1.184.448-.47 0-.864-.15-1.184-.448-.298-.32-.448-.714-.448-1.184V13.86l-5.056 7.136c-.533.747-1.11 1.12-1.728 1.12-.618-.021-1.184-.395-1.696-1.12l-4.96-7.136v10.208c0 .47-.15.864-.448 1.184-.298.299-.693.448-1.184.448zM77.147 25.828c-1.557 0-2.955-.384-4.192-1.152a8.584 8.584 0 01-2.944-3.168c-.704-1.344-1.056-2.858-1.056-4.544 0-1.685.384-3.2 1.152-4.544a8.676 8.676 0 013.168-3.168c1.344-.79 2.848-1.184 4.512-1.184 1.664 0 3.157.395 4.48 1.184a8.435 8.435 0 013.136 3.168c.79 1.344 1.184 2.859 1.184 4.544V24.1c0 .47-.16.864-.48 1.184-.299.299-.683.448-1.152.448-.47 0-.864-.15-1.184-.448-.299-.32-.448-.714-.448-1.184v-1.184a8.37 8.37 0 01-2.72 2.144c-1.045.512-2.197.768-3.456.768zm.64-2.88c1.088 0 2.059-.256 2.912-.768a5.728 5.728 0 002.016-2.144c.49-.917.736-1.941.736-3.072 0-1.152-.245-2.176-.736-3.072-.49-.917-1.163-1.632-2.016-2.144-.853-.533-1.824-.8-2.912-.8a5.485 5.485 0 00-2.912.8c-.853.512-1.536 1.227-2.048 2.144-.49.896-.736 1.92-.736 3.072 0 1.13.245 2.155.736 3.072a5.985 5.985 0 002.048 2.144c.875.512 1.845.768 2.912.768zM97.3 25.892c-1.813 0-3.306-.597-4.48-1.792-1.151-1.216-1.727-2.923-1.727-5.12V9.828c0-.49.149-.885.448-1.184.32-.299.714-.448 1.184-.448.49 0 .885.15 1.184.448.298.299.448.693.448 1.184v9.152c0 1.344.33 2.347.992 3.008.682.64 1.546.96 2.592.96 1.13 0 2.048-.384 2.752-1.152.704-.768 1.056-1.738 1.056-2.912V9.828c0-.49.149-.885.448-1.184.32-.299.714-.448 1.184-.448.49 0 .885.15 1.184.448.298.299.448.693.448 1.184v9.152c0 1.344.33 2.347.992 3.008.682.64 1.546.96 2.592.96 1.13 0 2.048-.384 2.752-1.152.725-.768 1.088-1.738 1.088-2.912V9.828c0-.49.149-.885.448-1.184.32-.299.714-.448 1.184-.448.49 0 .885.15 1.184.448.298.299.448.693.448 1.184v14.24c0 .47-.15.864-.448 1.184-.299.299-.694.448-1.184.448-.47 0-.864-.15-1.184-.448-.299-.32-.448-.714-.448-1.184v-.48a5.42 5.42 0 01-1.92 1.696c-.768.405-1.622.608-2.56.608-1.28 0-2.4-.288-3.36-.864-.96-.597-1.686-1.461-2.176-2.592-.491 1.067-1.184 1.91-2.08 2.528-.875.619-1.888.928-3.04.928zM123.012 25.732c-.469 0-.843-.15-1.12-.448-.277-.32-.416-.714-.416-1.184V9.828c0-.49.139-.885.416-1.184.277-.299.651-.448 1.12-.448.491 0 .885.15 1.184.448.32.299.48.693.48 1.184v5.344h2.432l5.792-6.464c.277-.299.661-.47 1.152-.512.512-.043.907.064 1.184.32.32.299.501.64.544 1.024.043.363-.075.694-.352.992l-5.792 6.208 6.144 6.592c.277.277.416.608.416.992 0 .363-.171.693-.512.992-.277.256-.672.384-1.184.384-.491-.021-.875-.17-1.152-.448l-6.592-7.072h-2.08v5.92c0 .47-.16.864-.48 1.184-.299.299-.693.448-1.184.448zM145.897 25.828c-1.557 0-2.955-.384-4.192-1.152a8.584 8.584 0 01-2.944-3.168c-.704-1.344-1.056-2.858-1.056-4.544 0-1.685.384-3.2 1.152-4.544a8.671 8.671 0 013.168-3.168c1.344-.79 2.848-1.184 4.512-1.184 1.664 0 3.157.395 4.48 1.184a8.433 8.433 0 013.136 3.168c.789 1.344 1.184 2.859 1.184 4.544V24.1c0 .47-.16.864-.48 1.184-.299.299-.683.448-1.152.448-.469 0-.864-.15-1.184-.448-.299-.32-.448-.714-.448-1.184v-1.184a8.37 8.37 0 01-2.72 2.144c-1.045.512-2.197.768-3.456.768zm.64-2.88c1.088 0 2.059-.256 2.912-.768a5.733 5.733 0 002.016-2.144c.491-.917.736-1.941.736-3.072 0-1.152-.245-2.176-.736-3.072-.491-.917-1.163-1.632-2.016-2.144-.853-.533-1.824-.8-2.912-.8a5.485 5.485 0 00-2.912.8c-.853.512-1.536 1.227-2.048 2.144-.491.896-.736 1.92-.736 3.072 0 1.13.245 2.155.736 3.072a5.988 5.988 0 002.048 2.144c.875.512 1.845.768 2.912.768zM161.123 26.212a2.2 2.2 0 01-1.568-.64 2.2 2.2 0 01-.64-1.568c0-.619.213-1.141.64-1.568.448-.448.97-.672 1.568-.672.618 0 1.141.224 1.568.672.426.427.64.95.64 1.568 0 .598-.214 1.12-.64 1.568-.427.427-.95.64-1.568.64zM175.756 25.828c-1.728 0-3.254-.373-4.576-1.12a8.503 8.503 0 01-3.136-3.136c-.747-1.344-1.12-2.88-1.12-4.608 0-1.75.373-3.285 1.12-4.608a8.199 8.199 0 013.136-3.136c1.322-.768 2.848-1.152 4.576-1.152 1.706 0 3.221.384 4.544 1.152a7.985 7.985 0 013.104 3.136c.768 1.323 1.152 2.859 1.152 4.608 0 1.728-.374 3.264-1.12 4.608a8.273 8.273 0 01-3.104 3.136c-1.323.747-2.848 1.12-4.576 1.12zm0-2.88c1.109 0 2.09-.256 2.944-.768a5.265 5.265 0 001.984-2.112c.49-.896.736-1.93.736-3.104 0-1.173-.246-2.208-.736-3.104a5.216 5.216 0 00-1.984-2.144c-.854-.512-1.835-.768-2.944-.768-1.11 0-2.091.256-2.944.768a5.42 5.42 0 00-2.016 2.144c-.491.896-.736 1.93-.736 3.104 0 1.174.245 2.208.736 3.104.49.896 1.162 1.6 2.016 2.112.853.512 1.834.768 2.944.768zM190.981 25.7c-.469 0-.853-.15-1.152-.448-.277-.32-.416-.714-.416-1.184V9.828c0-.49.139-.885.416-1.184.299-.299.683-.448 1.152-.448.491 0 .886.15 1.184.448.299.299.448.693.448 1.184v5.344h9.888V9.828c0-.49.15-.885.448-1.184.32-.299.715-.448 1.184-.448.491 0 .875.15 1.152.448.278.299.416.693.416 1.184v14.24c0 .47-.138.864-.416 1.184-.277.299-.661.448-1.152.448-.469 0-.864-.15-1.184-.448-.298-.32-.448-.714-.448-1.184v-6.016h-9.888v6.016c0 .47-.149.864-.448 1.184-.298.299-.693.448-1.184.448zM218.036 8.228c.661 0 1.152.352 1.472 1.056l6.592 14.304c.192.427.213.81.064 1.152-.149.32-.405.566-.768.736-.939.427-1.632.213-2.08-.64l-5.216-11.84-5.376 11.84c-.192.405-.48.672-.864.8-.363.107-.768.053-1.216-.16-.405-.192-.693-.448-.864-.768-.149-.32-.117-.693.096-1.12L216.5 9.284c.32-.704.832-1.056 1.536-1.056zM237.553 25.828c-1.557 0-2.955-.384-4.192-1.152a8.584 8.584 0 01-2.944-3.168c-.704-1.344-1.056-2.858-1.056-4.544 0-1.685.384-3.2 1.152-4.544a8.671 8.671 0 013.168-3.168c1.344-.79 2.848-1.184 4.512-1.184 1.664 0 3.157.395 4.48 1.184a8.433 8.433 0 013.136 3.168c.789 1.344 1.184 2.859 1.184 4.544V24.1c0 .47-.16.864-.48 1.184-.299.299-.683.448-1.152.448-.469 0-.864-.15-1.184-.448-.299-.32-.448-.714-.448-1.184v-1.184a8.37 8.37 0 01-2.72 2.144c-1.045.512-2.197.768-3.456.768zm.64-2.88c1.088 0 2.059-.256 2.912-.768a5.733 5.733 0 002.016-2.144c.491-.917.736-1.941.736-3.072 0-1.152-.245-2.176-.736-3.072-.491-.917-1.163-1.632-2.016-2.144-.853-.533-1.824-.8-2.912-.8a5.485 5.485 0 00-2.912.8c-.853.512-1.536 1.227-2.048 2.144-.491.896-.736 1.92-.736 3.072 0 1.13.245 2.155.736 3.072a5.988 5.988 0 002.048 2.144c.875.512 1.845.768 2.912.768zM259.211 25.86c-1.472 0-2.795-.31-3.968-.928-1.152-.64-2.069-1.568-2.752-2.784-.661-1.216-.992-2.71-.992-4.48V9.796c0-.47.149-.853.448-1.152.32-.32.715-.48 1.184-.48s.853.16 1.152.48c.32.299.48.683.48 1.152v7.872c0 1.814.48 3.147 1.44 4 .981.832 2.197 1.248 3.648 1.248.917 0 1.728-.181 2.432-.544.725-.363 1.301-.853 1.728-1.472.427-.618.64-1.312.64-2.08V9.796c0-.49.149-.885.448-1.184.32-.299.715-.448 1.184-.448.491 0 .885.15 1.184.448.299.299.448.693.448 1.184v14.272c0 .47-.149.864-.448 1.184-.299.299-.693.448-1.184.448-.469 0-.864-.15-1.184-.448-.299-.32-.448-.714-.448-1.184v-.352c-.661.662-1.461 1.184-2.4 1.568a7.952 7.952 0 01-3.04.576zm.672-19.968c-1.088 0-2.069-.181-2.944-.544-.875-.384-1.568-.896-2.08-1.536a3.52 3.52 0 01-.768-2.208c0-.448.139-.821.416-1.12a1.343 1.343 0 011.024-.448c.427 0 .768.15 1.024.448.277.299.416.672.416 1.12 0 .533.277.992.832 1.376.555.363 1.248.544 2.08.544.832 0 1.525-.181 2.08-.544.555-.384.832-.843.832-1.376 0-.448.139-.821.416-1.12a1.343 1.343 0 011.024-.448c.427 0 .768.15 1.024.448.277.299.416.672.416 1.12a3.52 3.52 0 01-.768 2.208c-.512.64-1.205 1.152-2.08 1.536-.853.363-1.835.544-2.944.544zM275.231 25.7c-.469 0-.853-.15-1.152-.448-.277-.32-.416-.714-.416-1.184V9.828c0-.49.139-.885.416-1.184.299-.299.683-.448 1.152-.448.491 0 .886.15 1.184.448.299.299.448.693.448 1.184v5.344h9.888V9.828c0-.49.15-.885.448-1.184.32-.299.715-.448 1.184-.448.491 0 .875.15 1.152.448.278.299.416.693.416 1.184v14.24c0 .47-.138.864-.416 1.184-.277.299-.661.448-1.152.448-.469 0-.864-.15-1.184-.448-.298-.32-.448-.714-.448-1.184v-6.016h-9.888v6.016c0 .47-.149.864-.448 1.184-.298.299-.693.448-1.184.448z" fill="#10C14C"/></symbol><symbol id="icon__books" viewBox="0 0 304 216"><circle cx="152" cy="108" r="108" fill="#EFF1F4"/><path d="M195.668 138.982c0 5.881-4.697 10.656-10.459 10.656H24.459c-5.802 0-10.459-4.775-10.459-10.656s4.697-10.656 10.459-10.656h160.75c5.762 0 10.459 4.775 10.459 10.656z" fill="#FE5244"/><path d="M127.823 28H62.032v45.782h127.084C181.065 46.629 156.121 28 127.823 28z" fill="#fff"/><path fill-rule="evenodd" clip-rule="evenodd" d="M45.14 75.324V26.5h82.683c18.403 0 35.42 7.698 47.495 20.44 27.259-5.448 54.204-5.425 74.405-4.028 10.247.709 18.772 1.772 24.739 2.658 2.984.444 5.329.843 6.931 1.132.802.145 1.417.262 1.834.343.208.04.366.072.474.094l.122.025.032.006.011.003-.305 1.468.306-1.468-.5 2.956c-34.332-4.483-57.642 1.76-72.322 9.037-6.677 3.31-11.585 6.842-14.944 9.698l.176-.074c5.037-2.115 12.309-4.807 21.274-7.126 17.926-4.639 42.673-7.803 69.882-1.859l-.64 2.931c-26.623-5.816-50.875-2.726-68.49 1.832-8.804 2.278-15.938 4.92-20.864 6.988-.546.23-1.064.451-1.555.665l93.978-.847.027 3-98.769.89.005.018h-2.015l-2.985.027.02-.027H73.873l-28.734.042zm144.59-4.552a51.482 51.482 0 013.412-3.31c3.535-3.143 8.96-7.211 16.571-10.984 9.827-4.871 23.264-9.233 40.929-10.493a314.4 314.4 0 00-1.126-.08c-19.61-1.356-45.551-1.4-71.862 3.635a65.334 65.334 0 0112.076 21.232zm-2.657 1.51H75.372V29.5h52.451c26.959 0 50.801 17.314 59.25 42.782z" fill="#FFCF2D"/><path d="M149.254 105v12.511a4.809 4.809 0 004.815 4.815h51.939v.908a3.975 3.975 0 01-3.986 3.986H20.354a3.975 3.975 0 01-3.986-3.986V99.238a3.975 3.975 0 013.986-3.986h181.668a3.975 3.975 0 013.986 3.986v.908h-51.939c-2.644.039-4.815 2.17-4.815 4.854z" fill="#fff"/><path fill-rule="evenodd" clip-rule="evenodd" d="M20.354 93.752a5.475 5.475 0 00-5.486 5.486v23.996a5.475 5.475 0 005.486 5.486h181.668a5.475 5.475 0 005.486-5.486v-2.408h-5.899c-.776-2.675-1.245-5.994-1.245-9.589 0-3.606.471-6.935 1.252-9.591h5.892v-2.408a5.475 5.475 0 00-5.486-5.486H20.354zm-2.486 5.486a2.475 2.475 0 012.486-2.486h181.668c1.177 0 2.153.802 2.416 1.894H154.047c-3.443.051-6.293 2.83-6.293 6.354v12.511a6.308 6.308 0 006.315 6.315h50.369a2.473 2.473 0 01-2.416 1.894H20.354a2.475 2.475 0 01-2.486-2.486V99.238z" fill="#FFCF2D"/><path d="M81.568 158.202c-1.895 1.776-3.078 5.013-3.078 7.736 0 5.407 4.736 10.972 10.577 10.972h145.555a4.623 4.623 0 01-4.618 4.617H54.336c-4.697 0-8.96-1.776-12.038-4.617-3.079-2.842-5.012-6.789-5.012-11.17 0-8.722 7.617-15.786 17.05-15.786h175.668a4.623 4.623 0 014.618 4.617v.829H89.067c-2.96-.039-5.605 1.066-7.5 2.802z" fill="#FFCF2D"/><path d="M224.084 176.515v-21.154h2.565v21.154h3v-21.154h4.933v-1.776H88.554c-6.828 0-12.354 5.525-12.354 12.353 0 3.394 1.382 6.473 3.631 8.722 1.145 1.184 2.566 2.092 4.105 2.723 1.42.592 3 .908 4.618.908h146.028v-1.776h-10.498z" fill="#FE5244"/><path d="M228.149 155.36v21.155H89.067c-5.841 0-10.577-4.736-10.577-10.577 0-2.921 1.183-5.565 3.078-7.499a10.526 10.526 0 017.46-3.079h139.121z" fill="#fff"/><path d="M108.445 170.358V188H96.25v-15.392c0-3.671-2.96-6.67-6.67-6.67h-5.447v-2.25h17.642c3.71 0 6.67 3 6.67 6.67z" fill="#FE5244"/><path d="M235.174 74.768H27.814a9.702 9.702 0 00-9.71 9.71c.04 5.327 4.342 9.669 9.71 9.669h207.36a9.702 9.702 0 009.709-9.71c-.039-5.327-4.381-9.669-9.709-9.669z" fill="#10C14C"/><path d="M85.16 94.187h-2.092c.237.632.829 2.21 2.131 2.21.592 0 2.092-.276 3.197-2.762.947-2.053 1.42-5.17 1.42-9.196 0-3.71-.513-6.828-1.42-8.96-.83-1.894-2.013-2.999-3.237-2.999-1.327 0-1.92 1.584-2.163 2.23l-.007.02h2.092c.039-.06.069-.119.093-.168a.477.477 0 01.064-.108c.237.118.79.552 1.342 1.815.592 1.302 1.263 3.789 1.263 8.13 0 7.773-1.874 9.728-2.593 9.982.017-.018-.022-.09-.09-.194zM186.038 94.188h2.091c.04.118.119.197.198.276.71-.237 2.604-2.17 2.604-9.985 0-7.815-1.894-9.788-2.604-9.986a.97.97 0 00-.198.277h-2.091l.007-.02c.242-.646.836-2.23 2.163-2.23.553 0 2.053.276 3.197 2.763.947 2.091 1.421 5.17 1.421 9.196 0 11.327-3.868 11.919-4.657 11.919-1.303 0-1.895-1.579-2.131-2.21zM203.167 94.188h2.091c.035.051.069.096.101.135.04.052.074.097.097.14.71-.236 2.604-2.17 2.604-9.984 0-7.815-1.894-9.788-2.604-9.986a.97.97 0 00-.198.277h-2.091l.007-.02c.242-.646.836-2.23 2.163-2.23.553 0 2.053.276 3.197 2.763.947 2.091 1.421 5.17 1.421 9.196 0 11.327-3.868 11.919-4.657 11.919-1.303 0-1.895-1.579-2.131-2.21zM222.426 94.188h-2.091c.236.631.828 2.21 2.131 2.21 1.105 0 4.657-.868 4.657-11.92 0-11.09-3.552-11.918-4.657-11.918-1.328 0-1.921 1.584-2.163 2.229l-.008.02h2.092c.079-.158.158-.237.197-.276.79.197 2.605 2.25 2.605 9.985 0 4.736-.671 7.183-1.263 8.446-.473 1.026-.987 1.46-1.342 1.54a1.166 1.166 0 00-.158-.316zM134.533 94.188h2.092l.048.07c.06.083.11.152.11.245.71-.237 2.604-2.17 2.604-9.985 0-7.735-1.815-9.788-2.604-9.985a.972.972 0 00-.198.276h-2.092l.008-.02c.242-.645.835-2.23 2.163-2.23 1.105 0 4.657.83 4.657 11.92 0 11.327-3.868 11.919-4.657 11.919-1.302 0-1.894-1.579-2.131-2.21zM153.793 94.188h-2.092c.237.631.829 2.21 2.131 2.21.75 0 2.132-.316 3.197-2.526.947-2.013 1.46-5.17 1.46-9.393 0-4.223-.473-7.38-1.46-9.394-1.065-2.21-2.447-2.525-3.197-2.525-1.327 0-1.921 1.584-2.163 2.229l-.007.02h2.091a.972.972 0 01.198-.276c.473.079.947.592 1.342 1.42.552 1.185 1.263 3.632 1.263 8.565 0 4.894-.671 7.341-1.263 8.564-.395.83-.908 1.342-1.342 1.421a1.196 1.196 0 00-.158-.315zM168.87 94.188h2.091c.079.118.119.197.158.315.79-.197 2.605-2.25 2.605-9.985 0-7.814-1.894-9.788-2.605-9.985-.039.04-.118.118-.197.276h-2.092l.008-.02c.242-.645.835-2.23 2.163-2.23.789 0 4.657.553 4.657 11.92 0 11.05-3.552 11.919-4.657 11.919-1.303 0-1.895-1.579-2.131-2.21zM100.236 94.188h2.092c.079.118.118.197.118.276.711-.237 2.605-2.17 2.605-9.985 0-7.736-1.816-9.788-2.605-9.986-.039.04-.118.119-.197.277h-2.092l.008-.02c.241-.646.835-2.23 2.163-2.23 1.105 0 4.657.829 4.657 11.92 0 4.025-.474 7.143-1.421 9.195-1.105 2.486-2.605 2.763-3.197 2.763-1.302 0-1.894-1.579-2.131-2.21zM119.496 94.188h-2.092c.237.631.829 2.21 2.131 2.21 1.106 0 4.657-.868 4.657-11.92 0-4.222-.473-7.38-1.46-9.392-1.065-2.21-2.447-2.526-3.197-2.526-1.327 0-1.921 1.584-2.163 2.229l-.007.02h2.091a.972.972 0 01.198-.276c.473.079.947.592 1.342 1.42.552 1.185 1.263 3.632 1.263 8.565 0 7.736-1.816 9.788-2.605 9.985-.02-.059-.05-.108-.079-.157a.78.78 0 01-.079-.158zM31.602 94.186h2.092c.022.065.055.117.08.158.022.035.039.061.039.08.236-.12.789-.553 1.341-1.816.593-1.342 1.263-3.789 1.263-8.17 0-3.907-.631-6.354-1.184-7.735-.552-1.5-1.144-2.053-1.42-2.21-.04.078-.08.157-.158.276h-2.092l.008-.02c.241-.646.835-2.23 2.163-2.23 1.184 0 2.368 1.184 3.236 3.236.632 1.54 1.42 4.302 1.42 8.683 0 3.75-.473 6.828-1.42 8.96-.868 1.894-2.013 2.999-3.236 2.999-1.303 0-1.895-1.579-2.132-2.21zM50.823 94.188h-2.092c.237.631.83 2.21 2.132 2.21 1.223 0 2.368-1.105 3.236-3 .947-2.131 1.42-5.21 1.42-8.959 0-7.735-2.407-11.919-4.656-11.919-1.328 0-1.922 1.584-2.163 2.23l-.008.02h2.092c.078-.119.118-.198.157-.277.277.158.83.71 1.421 2.132.553 1.341 1.184 3.828 1.184 7.814 0 4.381-.67 6.828-1.263 8.17-.552 1.263-1.105 1.697-1.342 1.815 0-.04-.039-.118-.118-.237zM65.9 94.188h2.091c.08.118.119.197.119.197.237-.08.789-.513 1.342-1.737.592-1.302 1.263-3.75 1.263-8.209 0-4.341-.671-6.828-1.263-8.13-.553-1.263-1.105-1.697-1.342-1.816a.48.48 0 00-.064.109c-.025.05-.055.108-.094.168H65.86l.008-.02c.242-.646.835-2.23 2.163-2.23 1.223 0 2.407 1.105 3.236 3 .908 2.13 1.42 5.249 1.42 8.959 0 3.828-.473 6.867-1.42 8.998-1.184 2.644-2.644 2.92-3.236 2.92-1.303 0-1.895-1.578-2.132-2.21z" fill="#fff"/></symbol><symbol id="icon__cross" viewBox="0 0 32 32"><path d="M24.707 8.707a1 1 0 00-1.414-1.414L16 14.586 8.707 7.293a1 1 0 00-1.414 1.414L14.586 16l-7.293 7.293a1 1 0 101.414 1.414L16 17.414l7.293 7.293a1 1 0 001.414-1.414L17.414 16l7.293-7.293z" fill="#4B4D52"/></symbol><symbol id="icon__globus" viewBox="0 0 304 217"><g clip-path="url(#clip0)"><circle cx="152" cy="108" r="108" fill="#EFF1F4"/><path d="M231.416 98.93c0 40.379-32.733 73.112-73.112 73.112-40.378 0-73.112-32.733-73.112-73.111 0-40.379 32.734-73.112 73.112-73.112 40.379 0 73.112 32.733 73.112 73.112zM127.992 215.799h60.876l-30.665-15.156-30.211 15.156z" fill="#fff"/><path fill-rule="evenodd" clip-rule="evenodd" d="M158.304 27.319c-39.55 0-71.612 32.062-71.612 71.612s32.062 71.611 71.612 71.611 71.612-32.061 71.612-71.611c0-39.55-32.062-71.612-71.612-71.612zM83.692 98.93c0-41.207 33.405-74.612 74.612-74.612 41.207 0 74.612 33.405 74.612 74.612 0 41.207-33.405 74.611-74.612 74.611-41.207 0-74.612-33.404-74.612-74.611z" fill="#10C14C"/><path fill-rule="evenodd" clip-rule="evenodd" d="M183.777 182.997L135.364 14.143l-1.443.416C97.293 25.112 70.5 58.919 70.5 98.93c0 48.012 38.485 86.992 86.304 87.792v12.944l-35.147 17.633h73.631l-35.484-17.538v-13.039a88.636 88.636 0 0022.522-3.317l1.451-.408zm-49.45 31.302l22.477-11.276 3 .084 22.644 11.192h-48.121zM73.5 98.93c0-38.113 25.176-70.406 59.812-81.06l46.747 163.044a85.577 85.577 0 01-21.755 2.821c-46.855 0-84.804-37.949-84.804-84.805z" fill="#FFCF2D"/></g></symbol><symbol id="icon__laptop" viewBox="0 0 304 216"><circle cx="152" cy="108" r="108" fill="#EFF1F4"/><path d="M248.901 148.974H62.534V41.211C62.534 33.915 68.448 28 75.745 28H235.69c7.297 0 13.211 5.915 13.211 13.211v107.763z" fill="#fff"/><path fill-rule="evenodd" clip-rule="evenodd" d="M75.745 29.5c-6.468 0-11.711 5.243-11.711 11.711v106.263H247.4V41.211c0-6.468-5.243-11.711-11.711-11.711H75.745zm173.156 119.474h1.5V41.211c0-8.125-6.586-14.711-14.711-14.711H75.745c-8.125 0-14.711 6.586-14.711 14.711v109.263H248.9v-1.5z" fill="#10C14C"/><path d="M234.833 141.954H77.376c-4.146 0-7.518-3.372-7.518-7.518V42.068c0-4.146 3.372-7.518 7.518-7.518h157.457c4.146 0 7.518 3.372 7.518 7.518v92.396c0 4.146-3.372 7.49-7.518 7.49z" fill="#10C14C"/><path d="M281.57 174.264c7.131 4.643 5.472 13.736-2.957 13.736H24.724c-7.103 0-9.535-9.591-2.57-13.985l259.416.249z" fill="#10C14C" stroke="#10C14C" stroke-width="3" stroke-miterlimit="10"/><path d="M278.613 181.671H24.724c-4.532 0-6.329-5.335-2.57-7.656l40.435-25.041h185.787l33.166 25.289c3.317 2.516 1.382 7.408-2.929 7.408z" fill="#fff"/><path fill-rule="evenodd" clip-rule="evenodd" d="M282.449 173.068l.003.003c2.214 1.68 2.726 4.254 1.881 6.391-.836 2.115-2.954 3.709-5.72 3.709H24.724c-2.909 0-5.064-1.744-5.816-3.98-.76-2.26-.037-4.911 2.456-6.452l40.799-25.265h186.72l33.566 25.594zm-56.912-22.594h-8.463l6.496 6.398h10.355l-8.388-6.398zm-12.739 0h-9.574l5.723 6.398h10.347l-6.496-6.398zm-13.599 0h-8.925l4.963 6.398h9.685l-5.723-6.398zm-12.722 0h-10.638l4.197 6.398h11.404l-4.963-6.398zm-14.226 0h-8.882l2.046 6.398h11.033l-4.197-6.398zm-12.032 0h-6.691v6.398h8.737l-2.046-6.398zm-9.691 0h-5.365l-2.045 6.398h7.41v-6.398zm-8.514 0h-8.882l-4.197 6.398h11.033l2.046-6.398zm-12.47 0h-10.639l-4.963 6.398h11.405l4.197-6.398zm-14.435 0h-8.926l-5.722 6.398h9.684l4.964-6.398zm-12.951 0h-9.574l-6.496 6.398h10.348l5.722-6.398zm-13.85 0h-7.73l-9.326 6.398h10.56l6.496-6.398zm-13.034 0l-24.063 16.508c-2.033 1.271-2.62 3.472-1.99 5.342.626 1.858 2.412 3.301 4.8 3.301h195.295c2.266 0 4.027-1.309 4.722-3.07.705-1.786.262-3.931-1.577-5.318l-.004-.004-21.973-16.759h17.386l32.766 24.985c1.101.834 1.278 1.962.907 2.9-.379.96-1.385 1.812-2.93 1.812H24.724c-1.623 0-2.632-.924-2.972-1.936-.332-.987-.075-2.163 1.19-2.944l40.074-24.817h12.258zm-22.425 19.022l14.03-9.624h11.887l-12.95 12.753H54.022c-1.094 0-1.74-.615-1.957-1.259-.21-.621-.06-1.349.753-1.85l.032-.02zm17.243 3.129l12.95-12.753h10.71l-11.408 12.753H70.092zm16.277 0l11.408-12.753h10.041l-9.895 12.753H86.37zm15.351 0l9.895-12.753h11.763l-8.367 12.753H101.72zm16.879 0l8.367-12.753h12.043l-4.079 12.753h-16.331zm19.481 0l4.078-12.753h8.37v12.753H138.08zm15.448 0v-12.753h9.696l4.079 12.753h-13.775zm16.924 0l-4.078-12.753h12.042l8.367 12.753h-16.331zm19.919 0l-8.367-12.753h11.764l9.894 12.753h-13.291zm17.088 0l-9.894-12.753h10.04l11.409 12.753h-11.555zm15.58 0l-11.409-12.753h10.71l12.95 12.753h-12.251zm16.527 0l-12.95-12.753h11.242l12.787 9.752.007.006c.728.548.823 1.247.596 1.823-.238.602-.882 1.172-1.932 1.172h-9.75z" fill="#10C14C"/><path d="M221.732 141.954H81.909l2.515-17.827c1.547-10.973 9.424-19.983 20.065-23.023l34.079-7.075h26.505l34.079 7.075a27.911 27.911 0 0120.065 23.023l2.515 17.827z" fill="#FFCF2D"/><path d="M127.374 97.235l15.146 17.164 9.37-9.473 9.369 9.473 15.146-17.164a.56.56 0 00-.055-.774.56.56 0 00-.774.055l-14.372 16.28-8.548-8.65a.532.532 0 00-.048-.72.532.532 0 00-.715-.051.542.542 0 00-.722.051c-.204.178-.22.498-.048.72l-8.548 8.65-14.372-16.28c-.193-.248-.553-.248-.774-.055-.248.194-.248.553-.055.774zM152.055 121.06a2.406 2.406 0 01-2.404-2.405 2.406 2.406 0 012.404-2.405 2.407 2.407 0 012.405 2.405 2.407 2.407 0 01-2.405 2.405zm0-3.704c-.718 0-1.299.58-1.299 1.299s.581 1.299 1.299 1.299c.719 0 1.299-.58 1.299-1.299s-.58-1.299-1.299-1.299zM152.055 134.603a2.406 2.406 0 01-2.404-2.405 2.406 2.406 0 012.404-2.405 2.407 2.407 0 012.405 2.405 2.407 2.407 0 01-2.405 2.405zm0-3.704c-.718 0-1.299.58-1.299 1.299s.581 1.299 1.299 1.299c.719 0 1.299-.58 1.299-1.299s-.58-1.299-1.299-1.299z" fill="#fff"/><path d="M118.585 94.899V93.89c0-.884-.719-1.603-1.603-1.603h-3.759c-.884 0-1.603.719-1.603 1.603 0-.884-.719-1.603-1.603-1.603h-3.731c-.885 0-1.603.719-1.603 1.603v.014a1.605 1.605 0 00-1.603-1.589h-3.731c-.885 0-1.603.719-1.603 1.603v6.949l-.028.008v-6.984c0-.885-.719-1.603-1.603-1.603h-3.731c-.885 0-1.603.718-1.603 1.603v8.971l-9.591 2.747 12.05 35.765h45.162l-12.051-48.7-7.766 2.225z" fill="#fff"/><path fill-rule="evenodd" clip-rule="evenodd" d="M89.28 93.89a3.104 3.104 0 013.104-3.103h3.73c.603 0 1.165.172 1.64.469a3.087 3.087 0 011.594-.44h3.732c.577 0 1.117.157 1.58.431a3.087 3.087 0 011.626-.46h3.731c.586 0 1.135.163 1.603.446a3.088 3.088 0 011.603-.446h3.759c1.385 0 2.559.91 2.958 2.163l7.494-2.146 12.884 52.069H92.163l-12.896-38.274 10.014-2.868v-7.84zm0 10.962l-6.167 1.766 11.205 33.255h42.168l-11.217-45.329-5.184 1.485V106.3a5.45 5.45 0 01-5.452 5.452h-.857c-.343 0-.676-.047-.991-.136a3.637 3.637 0 01-3.293 2.126h-1.658a4.637 4.637 0 01-3.168-1.244 3.64 3.64 0 01-2.139.692h-1.99a4.281 4.281 0 01-3.464-1.753 3.63 3.63 0 01-1.483.315h-.857a5.451 5.451 0 01-5.453-5.452v-1.448zm3.104-11.065a.104.104 0 00-.103.103v12.41a2.451 2.451 0 002.452 2.452h.857a.617.617 0 00.628-.62V93.89a.104.104 0 00-.103-.103h-3.731zm20.736.098v14.224c.007.355.3.643.656.643h.857a2.451 2.451 0 002.452-2.452V93.89a.104.104 0 00-.103-.103h-3.759c-.054 0-.1.045-.103.098zm-3.103-.098c.054 0 .1.045.103.099v16.201a.653.653 0 01-.628.655h-1.658a1.65 1.65 0 01-1.651-1.65V93.89c0-.056.047-.103.103-.103h3.731zm-10.771.131c0-.056.047-.103.103-.103h3.731c.056 0 .103.047.103.103v15.616c0 .36-.296.656-.656.656h-1.99c-.72 0-1.291-.572-1.291-1.292v-14.98z" fill="#10C14C"/><path d="M165.101 77.777v20.177c0 3.482-5.942 6.329-13.267 6.329-7.324 0-13.266-2.847-13.266-6.33V77.778h26.533z" fill="#fff"/><path d="M165.101 77.777c0 15.23-9.756 19.762-19.126 18.96h-.083c-4.146-.386-7.296-3.924-7.296-8.07V77.805h26.505v-.028z" fill="#10C14C"/><path d="M171.264 72.581v1.023a4.081 4.081 0 01-4.09 4.09h-2.101l.028.47c0 6.523-5.279 11.802-11.802 11.802h-2.902c-6.523 0-11.802-5.279-11.802-11.802l.028-.47h-2.1a4.081 4.081 0 01-4.091-4.09V72.58a4.081 4.081 0 014.091-4.09h2.68l.305-5.003c0-.774.11-1.52.331-2.21 7.905 1.961 17.164-3.124 19.651-4.644 2.764 1.05 4.726 3.703 4.726 6.827l.304 5.002h2.681a4.117 4.117 0 014.063 4.118z" fill="#fff"/><path d="M167.367 68.49h-2.874l-.304-5.002c0-3.123-1.962-5.776-4.726-6.827-2.488 1.493-11.747 6.578-19.651 4.643a7.229 7.229 0 00-.332 2.212l-.304 5.002h-1.797s-3.676-17.8-.055-21.06c2.681-2.405 27.224 2.846 29.933 6.578 1.52 2.128.11 14.454.11 14.454z" fill="#E57281"/><path d="M149.955 75.98c-.055 0-.111 0-.138-.028-.221-.082-.332-.331-.249-.525.774-2.045.58-4.615-.498-6.882-.635-1.382-1.547-2.377-2.349-2.653-1.629-.56-3.868.123-4.233.234a.735.735 0 01-.051.015c-.221.083-.442-.028-.525-.249-.083-.221.028-.442.249-.525l.053-.016c.402-.124 2.845-.879 4.756-.233 1.023.36 2.073 1.493 2.819 3.096 1.161 2.46 1.354 5.279.525 7.545-.027.11-.193.221-.359.221zM160.458 67.412a.397.397 0 01-.277-.11c-.027-.028-1.824-1.493-4.698-1.493a.425.425 0 01-.415-.414c0-.221.194-.415.415-.415 3.178 0 5.141 1.603 5.223 1.686a.429.429 0 01.056.58c-.056.11-.194.166-.304.166zM155.013 80.817c.221-.028.414-.221.387-.442-.075-1.227-.854-2.204-1.041-2.44-.019-.023-.032-.04-.037-.048-.138-.165-.415-.165-.581-.027a.401.401 0 00-.027.58s.166.166.331.442c-1.077.525-2.017.691-2.791.691-1.328 0-2.184-.519-2.35-.62l-.018-.01-.009-.005c-.193-.111-.442-.083-.58.11-.111.194-.083.442.11.58.055.056 1.106.774 2.847.774.884 0 1.962-.193 3.151-.773.083.248.138.525.166.801.027.221.193.387.414.387h.028zM156.892 72.476c.381-.024.651-.66.604-1.422-.048-.762-.395-1.36-.776-1.337-.381.024-.651.661-.604 1.423.048.762.395 1.36.776 1.336z" fill="#10C14C"/><path d="M146.164 71.057c.043.7-.205 1.287-.556 1.309-.35.021-.67-.529-.713-1.23-.044-.7.205-1.286.555-1.308.35-.022.67.528.714 1.23zM137.877 73.907a.426.426 0 01-.415-.414 2.188 2.188 0 00-2.183-2.184.425.425 0 01-.415-.414c0-.221.194-.415.415-.415a3.02 3.02 0 013.012 3.013.407.407 0 01-.414.414zM165.267 73.493c0 .22.193.414.414.414.249 0 .415-.166.415-.414 0-1.189.967-2.184 2.183-2.184a.425.425 0 00.415-.414.426.426 0 00-.415-.415 3.02 3.02 0 00-3.012 3.013z" fill="#10C14C"/></symbol><symbol id="icon__menu" viewBox="0 0 24 24"><path d="M5.497 7.248a.75.75 0 000 1.5h13.005a.75.75 0 000-1.5H5.497zM4.748 12a.75.75 0 01.75-.75h13.005a.75.75 0 010 1.5H5.498a.75.75 0 01-.75-.75zM4.748 16.002a.75.75 0 01.75-.75h13.005a.75.75 0 010 1.5H5.498a.75.75 0 01-.75-.75z"/></symbol><symbol id="icon__presentation" viewBox="0 0 304 217"><g clip-path="url(#clip0)"><circle cx="152" cy="108" r="108" fill="#EFF1F4"/><path d="M51.352 174.048h201.211c7.362 0 13.352-5.99 13.352-13.375V29.352c0-7.362-5.967-13.352-13.352-13.352H51.352C43.99 16 38 21.967 38 29.352v131.344c0 7.362 5.967 13.352 13.352 13.352zM125.631 179.42L109.079 216h85.483l-18.976-41.952h-47.531l-2.424 5.372z" fill="#fff"/><path fill-rule="evenodd" clip-rule="evenodd" d="M51.352 14.5c-8.189 0-14.852 6.637-14.852 14.852v131.344c0 8.188 6.637 14.852 14.852 14.852h74.377L106.754 217.5h90.132l-18.976-41.952h74.653c8.192 0 14.852-6.664 14.852-14.875V29.352c0-8.189-6.637-14.852-14.852-14.852H51.352zM39.5 29.352c0-6.555 5.317-11.852 11.852-11.852h201.211c6.555 0 11.852 5.317 11.852 11.852v131.321c0 6.558-5.32 11.875-11.852 11.875H51.352c-6.555 0-11.852-5.317-11.852-11.852V29.352zM111.404 214.5l15.754-34.827 53.324 8.826 11.755 26.001h-80.833z" fill="#10C14C"/><path d="M150.071 154.5h.32a2.05 2.05 0 002.058-2.058v-1.737h.96v1.783a2.933 2.933 0 01-2.926 2.927h-.503a2.932 2.932 0 01-2.926-2.927v-1.783h.96v1.737c0 1.144.914 2.058 2.057 2.058z" fill="#10C14C"/><path fill-rule="evenodd" clip-rule="evenodd" d="M111.617 164.765h80.658c3.91 0 7.11-3.178 7.11-7.11v-9.762a7.103 7.103 0 00-7.11-7.11h-80.658a7.103 7.103 0 00-7.11 7.11v9.762a7.103 7.103 0 007.11 7.11zm40.832-14.746v-1.738a2.049 2.049 0 00-2.058-2.057h-.32a2.048 2.048 0 00-2.057 2.057v1.738h-1.303a.352.352 0 00-.343.343v2.126a3.62 3.62 0 003.612 3.612h.503c1.989 0 3.612-1.623 3.589-3.612v-2.126a.352.352 0 00-.343-.343h-1.28zm-4.001 9.351h1.44v-2.241c0-.183.16-.343.343-.343.183 0 .343.16.343.343v2.241h1.464c.182 0 .343.16.343.343a.353.353 0 01-.343.343h-3.59a.352.352 0 01-.343-.343c0-.183.16-.343.343-.343zm22.657-1.12h-5.441a2.45 2.45 0 01-2.447-2.447v-4.252a2.45 2.45 0 012.447-2.446h5.441a2.448 2.448 0 012.446 2.446v4.252a2.45 2.45 0 01-2.446 2.447zm4.915-1.989l2.012 1.28c.48.297 1.12-.046 1.097-.617v-6.516c0-.549-.617-.892-1.097-.594l-2.012 1.28c-.549.343-.892.96-.892 1.623v1.921c0 .663.343 1.28.892 1.623zm-38.935-3.362c-.182 0-.32-.137-.342-.32a5.159 5.159 0 00-1.761-3.566 5.151 5.151 0 00-3.749-1.28.37.37 0 01-.366-.32c-.023-.183.137-.343.32-.366a5.917 5.917 0 014.252 1.44c1.189 1.029 1.875 2.469 1.989 4.024a.337.337 0 01-.343.388zm-7.727-.982l-.023.022c-.434.526-.297 1.326.275 1.807l2.103 1.691c.571.458 1.395.412 1.829-.114l.023-.023c.434-.526 1.257-.549 1.806-.068l1.897 1.714c.595.549.595 1.463 0 1.875-1.989 1.395-4.572.892-6.698-.823l-3.201-2.584c-2.126-1.737-3.155-4.16-2.218-6.401.298-.686 1.189-.869 1.829-.389l2.081 1.509c.571.458.709 1.258.297 1.784zm5.578 1.326c-.183 0-.32-.138-.343-.321-.114-1.646-1.531-2.903-3.177-2.789a.37.37 0 01-.366-.32c-.023-.183.137-.343.32-.366 2.035-.137 3.772 1.418 3.909 3.43.023.183-.114.343-.343.366z" fill="#10C14C"/><path fill-rule="evenodd" clip-rule="evenodd" d="M210.528 25.99a3.878 3.878 0 117.755 0 3.878 3.878 0 01-7.755 0zm3.878-.877a.878.878 0 100 1.756.878.878 0 000-1.756zM220.245 25.99a3.878 3.878 0 117.755 0 3.878 3.878 0 01-7.755 0zm3.878-.877a.878.878 0 100 1.756.878.878 0 000-1.756zM233.862 22.113a3.878 3.878 0 100 7.755 3.878 3.878 0 000-7.755zm-.878 3.878a.878.878 0 111.756 0 .878.878 0 01-1.756 0z" fill="#FFCF2D"/><path fill-rule="evenodd" clip-rule="evenodd" d="M71.836 90.156a2.457 2.457 0 00-2.455 2.456v38.363a2.456 2.456 0 002.455 2.455h71.651a2.456 2.456 0 002.455-2.455V92.612a2.456 2.456 0 00-2.455-2.456h-71.65zm-5.455 2.456a5.456 5.456 0 015.455-5.456h71.651a5.456 5.456 0 015.455 5.456v38.363a5.457 5.457 0 01-5.455 5.455h-71.65a5.457 5.457 0 01-5.456-5.455V92.612z" fill="#10C14C"/><path d="M233.862 134.93h-71.651a3.957 3.957 0 01-3.955-3.955V92.612a3.956 3.956 0 013.955-3.956h71.651a3.956 3.956 0 013.955 3.956v38.363a3.956 3.956 0 01-3.955 3.955z" fill="#3FB1B5"/><path d="M220.327 134.815h-46.822c4.733-5.829 11.957-9.579 20.05-9.579h6.722a25.857 25.857 0 0120.05 9.579z" fill="#FE5244"/><path d="M195.453 125.259a7.033 7.033 0 01-6.973 6.104 7.046 7.046 0 01-6.127-3.566 25.798 25.798 0 0111.18-2.538h1.92zM209.285 126.859a7.03 7.03 0 01-6.562 4.481 7.034 7.034 0 01-6.973-6.104h4.55c3.155.023 6.173.572 8.985 1.623z" fill="#fff"/><path d="M204.141 115.062v10.38c0 1.623-3.247 2.926-7.225 2.926-.731 0-1.44-.046-2.103-.114-2.972-.366-5.121-1.486-5.121-2.812v-10.38h14.449z" fill="#EBA690"/><path d="M203.181 117.189c0 4.504-3.933 9.968-8.368 11.042-2.972-.366-5.121-1.486-5.121-2.812V115.04h13.26l.229 2.149z" fill="#935D5D"/><path d="M207.844 113.736v.252a3.21 3.21 0 01-3.2 3.201h-3.064a8.757 8.757 0 01-7.956 5.052h-.594a7.103 7.103 0 01-7.111-7.11v-7.339c4.55.297 10.334-3.681 10.334-3.681 1.898 7.339 7.316 7.248 9.831 6.768 1.029.525 1.76 1.623 1.76 2.857z" fill="#EBA690"/><path d="M204.141 117.189h.503a3.211 3.211 0 003.201-3.201v-.252a3.173 3.173 0 00-1.761-2.857c-.686.137-1.623.228-2.629.16-2.606-.206-5.83-1.624-7.202-6.928 0 0-5.784 3.978-10.333 3.681-.846-.045-1.647-.251-2.355-.663-3.773-2.149 5.349-12.208 15.82-10.7 8.368 1.212 8.185 11.226 8.025 13.604.412-.046.823-.069 1.235-.069 6.127 0 11.088 4.71 11.088 10.54 0 3.795-2.103 7.133-5.281 8.985a25.608 25.608 0 00-10.311-3.956v-8.344z" fill="#FFCF2D"/><path d="M189.349 115.885s.549 3.613 4.275.092c0 0-2.606.343-4.275-.092z" fill="#fff"/><path d="M198.128 110.696a.368.368 0 00.206.069c.091 0 .183-.046.274-.138.115-.16.092-.365-.068-.48-2.088-1.609-4.735-1.501-5.086-1.487l-.036.001c-.182.023-.342.183-.32.366.023.183.183.343.366.32h.007c.155-.008 2.72-.143 4.657 1.349zM190.538 115.108c.137 0 .251-.091.343-.228l.002-.007c.053-.152.77-2.214-.505-4.429-1.235-2.126-3.841-1.76-3.956-1.737a.339.339 0 00-.297.389c.023.205.206.32.389.297.091-.023 2.263-.32 3.246 1.394 1.075 1.871.533 3.62.464 3.841l-.006.023c-.069.16.022.366.205.435.023.022.069.022.115.022zM195.087 112.845c.265 0 .48-.481.48-1.075 0-.593-.215-1.074-.48-1.074s-.48.481-.48 1.074c0 .594.215 1.075.48 1.075z" fill="#935D5D"/><path d="M188.366 111.77c0 .493-.184.892-.412.892-.227 0-.411-.399-.411-.892 0-.492.184-.891.411-.891.228 0 .412.399.412.891zM202.998 114.514c0 .183.16.343.343.343.183 0 .343-.16.343-.343 0-1.098.891-1.966 1.966-1.966.183 0 .343-.16.343-.343a.352.352 0 00-.343-.343 2.654 2.654 0 00-2.652 2.652z" fill="#935D5D"/><path d="M232.97 82.507h-71.65a3.956 3.956 0 01-3.955-3.956V40.188a3.956 3.956 0 013.955-3.955h71.65a3.957 3.957 0 013.956 3.955v38.363a3.972 3.972 0 01-3.956 3.956z" fill="#66B0F0"/><path d="M218.384 82.506h-43.736c4.413-5.875 11.157-9.625 18.725-9.625h6.287c7.567 0 14.312 3.75 18.724 9.625z" fill="#FFCF2D"/><path d="M194.196 80.54h.983c4.275 0 7.75-3.475 7.75-7.75v-5.51c0-.023-.023-.046-.046-.046h-14.38c-.023 0-.046.023-.046.046v7.567a5.733 5.733 0 005.739 5.693z" fill="#fff"/><path d="M188.48 67.234v7.728c.206 4.252 10.791 2.583 13.969-7.728H188.48z" fill="#FFCF2D"/><path d="M207.113 63.92c0 .914-.366 1.737-.983 2.354a3.298 3.298 0 01-2.355.96h-3.132a7.863 7.863 0 01-7.362 5.076h-2.446a6.152 6.152 0 01-6.15-6.15v-9.602c3.521.297 6.493-2.538 6.607-2.652-.046.16-1.829 5.19 2.218 5.464 4.023.274 5.35-2.63 5.395-2.744 0 .114.023 4.001 3.201 4.207h1.669c1.852 0 3.338 1.257 3.338 3.086z" fill="#fff"/><path d="M202.403 60.833h-.274c-3.178-.206-3.201-4.07-3.201-4.207-.046.114-1.394 3.018-5.395 2.743-4.024-.274-2.264-5.304-2.218-5.464-.114.092-3.086 2.95-6.607 2.652a5.918 5.918 0 01-2.355-.708c-5.144-2.79-1.829-8.528 3.224-8.597 4.023-.045 5.738 2.15 5.738 2.15s.869-4.504 5.807-3.727c4.938.777 4.047 5.144 4.047 5.144s4.138-1.92 6.424 1.623c2.698 4.161-1.349 8.39-5.19 8.39z" fill="#FE5244"/><path d="M188.891 65.016h-.091a.34.34 0 01-.251-.411.21.21 0 01.004-.024c.052-.25.49-2.365-.439-4.114-1.014-1.856-2.722-1.675-2.967-1.649l-.028.003c-.183.023-.366-.092-.388-.275a.322.322 0 01.274-.388l.01-.002c.175-.025 2.458-.35 3.716 1.99 1.121 2.081.526 4.528.503 4.619-.068.137-.205.251-.343.251zM190.103 67.668a4.64 4.64 0 01-1.235-.16.34.34 0 11.184-.657c.284.065 2.733.628 3.657-1.309.092-.16.275-.251.458-.16.183.092.251.275.16.457-.663 1.44-2.058 1.83-3.224 1.83zM193.898 61.199c0 .593-.215 1.074-.48 1.074s-.48-.481-.48-1.075c0-.593.215-1.074.48-1.074s.48.481.48 1.075z" fill="#FFCF2D"/><path d="M186.308 62.09c.227 0 .412-.4.412-.892s-.185-.891-.412-.891c-.227 0-.412.4-.412.892s.185.891.412.891zM201.717 64.834c0 .183.16.343.343.343.183 0 .343-.16.343-.343 0-1.098.892-1.967 1.966-1.967.183 0 .343-.16.343-.342a.352.352 0 00-.343-.343 2.654 2.654 0 00-2.652 2.652zM142.572 82.507h-71.65a3.957 3.957 0 01-3.955-3.956V40.188a3.956 3.956 0 013.955-3.955h71.65a3.957 3.957 0 013.956 3.955v38.363c.022 2.172-1.761 3.956-3.956 3.956z" fill="#FFCF2D"/><path d="M125.266 82.506H80.821c4.481-6.698 11.34-10.974 19.022-10.974h6.401c7.682 0 14.518 4.276 19.022 10.974z" fill="#fff"/><path d="M89.029 74.55h28.006c-.434-.251-.846-.48-1.303-.709H90.309c-.434.229-.869.458-1.28.709zM120.876 77.408H85.211c.274-.252.549-.48.823-.709h34.019l.001.001c.274.228.548.457.822.708zM82.696 80.014h40.695c-.206-.251-.411-.48-.617-.709h-39.46c-.206.229-.412.458-.618.71zM80.821 82.506h44.445c-.137-.206-.275-.411-.389-.594a.38.38 0 01-.091-.115H81.324c-.046.023-.068.069-.091.115-.069.103-.137.2-.206.297-.069.097-.137.194-.206.297z" fill="#FEB040"/><path d="M110.131 62.982v10.22c0 1.05-3.247 1.897-7.225 1.897-3.886 0-7.064-.8-7.224-1.83V62.982h14.449z" fill="#EBA690"/><path d="M110.039 62.982v.228c0 5.03-6.241 10.791-10.745 11.454-.709.115-2.903-.32-3.59-1.417V62.958h14.335v.024z" fill="#935D5D"/><path d="M114.063 59.758v.229c0 1.76-1.44 3.2-3.201 3.2h-2.766a7.565 7.565 0 01-7.293 5.533h-2.95a5.947 5.947 0 01-5.944-5.944V49.767c5.487 1.532 15.295.092 15.295.092s-.891 3.2.801 6.676h2.88a3.24 3.24 0 013.178 3.223z" fill="#EBA690"/><path d="M110.748 56.146h-2.606c-2.218-3.75-.961-6.241-.961-6.241s-9.807 1.417-15.294-.092c-2.493-.686-4.093-1.989-3.498-4.298 1.897-7.407 22.336.48 23.754 3.155 1.44 2.675-1.395 7.476-1.395 7.476z" fill="#fff"/><path d="M100.597 63.165a.292.292 0 01-.228.091.368.368 0 01-.252-.114l-.32-.343c-.983.869-1.92 1.303-2.79 1.303-.09 0-.182 0-.25-.023-.96-.091-1.441-.731-1.464-.754-.114-.16-.091-.366.069-.48.16-.115.366-.092.48.068.023.023.343.434 1.006.503.731.069 1.577-.32 2.492-1.12l-.183-.206a.331.331 0 01.023-.48.332.332 0 01.48.023l.96 1.051c.137.138.114.343-.023.48zM104.072 56.352a.342.342 0 01-.251-.092c-2.012-1.966-4.573-1.577-4.596-1.577-.183.023-.365-.092-.388-.275-.023-.183.091-.366.274-.388.114-.023 2.926-.48 5.19 1.76a.332.332 0 010 .48c-.046.069-.137.092-.229.092zM96.276 61.153c-.023 0-.069 0-.091-.023-.183-.046-.275-.252-.229-.434 0-.023.709-2.355-.434-4.344-.983-1.715-3.201-1.19-3.224-1.166a.34.34 0 11-.16-.663c.937-.229 2.995-.229 3.978 1.509 1.303 2.263.549 4.778.503 4.892-.069.137-.183.229-.343.229z" fill="#935D5D"/><path d="M93.716 58.478c.227 0 .411-.4.411-.892s-.184-.891-.411-.891c-.228 0-.412.399-.412.891 0 .493.184.892.412.892zM100.826 58.66c.265 0 .48-.48.48-1.074 0-.593-.215-1.074-.48-1.074s-.48.48-.48 1.074c0 .594.215 1.075.48 1.075zM109.079 60.924a.352.352 0 01-.343-.343 2.703 2.703 0 012.698-2.698c.183 0 .343.16.343.343 0 .183-.16.343-.343.343a2 2 0 00-2.012 2.012.337.337 0 01-.343.343z" fill="#935D5D"/></g></symbol><symbol id="icon__socials_ig" viewBox="0 0 80 80"><path d="M40 7.2c10.667 0 11.933 0 16.167.233 10.833.5 15.9 5.634 16.4 16.4.2 4.234.233 5.5.233 16.167 0 10.667 0 11.967-.233 16.167-.5 10.766-5.534 15.9-16.4 16.4-4.234.2-5.467.233-16.167.233-10.7 0-11.933 0-16.167-.233-10.866-.5-15.9-5.667-16.4-16.4C7.233 51.933 7.2 50.7 7.2 40c0-10.7 0-11.933.233-16.167.5-10.766 5.567-15.9 16.4-16.4C28.067 7.267 29.333 7.2 40 7.2zM40 0C29.133 0 27.767 0 23.5.233 9 .9.9 8.967.167 23.567 0 27.767 0 29.133 0 40s0 12.233.233 16.667C.9 71.2 8.967 79.267 23.567 80H40c10.867 0 12.233 0 16.5-.233C71 79.1 79.1 71.033 79.833 56.433 80 52.233 80 50.867 80 40s0-12.233-.233-16.5C79.1 9 71.033.9 56.433.167 52.233 0 50.867 0 40 0zm0 19.467a20.533 20.533 0 100 41.065 20.533 20.533 0 000-41.065zm0 33.866a13.334 13.334 0 110-26.668 13.334 13.334 0 010 26.668zm21.367-39.5a4.8 4.8 0 10-.067 9.6 4.8 4.8 0 00.067-9.6z" fill="#FE5244"/></symbol><symbol id="icon__timer" viewBox="0 0 304 216"><circle cx="152" cy="108" r="108" fill="#EFF1F4"/><path d="M154.779 195.988c48.598 0 87.994-39.396 87.994-87.994S203.377 20 154.779 20s-87.994 39.396-87.994 87.994 39.396 87.994 87.994 87.994z" fill="#fff"/><path fill-rule="evenodd" clip-rule="evenodd" d="M63.5 107.994c0 40.278 26.085 74.467 62.281 86.583l-.953 2.845C87.446 184.909 60.5 149.6 60.5 107.994h3z" fill="#FFCF2D"/><path fill-rule="evenodd" clip-rule="evenodd" d="M154.803 46.304a1.5 1.5 0 00-1.5 1.5v1.871a58.112 58.112 0 00-20.855 4.41 1.5 1.5 0 001.149 2.77 55.107 55.107 0 0119.682-4.178v7.954a1.5 1.5 0 003 0v-4.15c6.349.152 11.756 1.307 17.779 3.818a53.593 53.593 0 0115.981 10.31l-2.838 2.842a1.5 1.5 0 002.124 2.119l2.851-2.856c4.297 4.473 7.714 9.576 10.166 15.178a49.795 49.795 0 014.184 18.601h-4.385a1.5 1.5 0 100 3h4.385a51.22 51.22 0 01-4.048 18.632 51.512 51.512 0 01-10.065 15.394l-3.089-3.09a1.5 1.5 0 00-2.122 2.121l3.088 3.088a51.827 51.827 0 01-15.369 10.032 51.232 51.232 0 01-18.642 4.049v-4.364a1.5 1.5 0 00-3 0v4.364a51.241 51.241 0 01-18.643-4.049l-.003-.001a51.302 51.302 0 01-15.373-10.035l3.084-3.084a1.501 1.501 0 00-2.122-2.121l-3.083 3.084a51.675 51.675 0 01-10.059-15.388 51.22 51.22 0 01-4.049-18.632h4.386a1.5 1.5 0 100-3h-4.385a53.295 53.295 0 014.213-19.187c2.55-5.978 5.772-10.528 10.067-14.65l2.909 2.914a1.5 1.5 0 002.124-2.12l-3.989-3.996-4.709-5.188a1.502 1.502 0 00-2.119-.102c-12.02 10.915-18.666 26.7-18.666 43.831 0 8.361 1.639 16.471 4.868 24.104a61.68 61.68 0 0013.268 19.676 61.686 61.686 0 0019.677 13.269c7.644 3.228 15.754 4.867 24.104 4.867s16.461-1.639 24.129-4.892a61.678 61.678 0 0019.676-13.268 61.688 61.688 0 0013.268-19.677c3.229-7.644 4.868-15.754 4.868-24.103 0-8.36-1.715-16.488-5.067-24.157-3.217-7.353-7.816-13.968-13.656-19.661a63.622 63.622 0 00-20.029-13.235c-7.726-3.215-14.819-4.614-23.165-4.614zm41.216 22.56l-1.723 1.726c4.559 4.735 8.19 10.15 10.794 16.1a52.775 52.775 0 014.437 19.803h2.077a1.5 1.5 0 110 3h-2.076a54.254 54.254 0 01-4.287 19.802 54.533 54.533 0 01-10.706 16.346l1.483 1.482a1.5 1.5 0 01-2.121 2.122l-1.588-1.588-.865.696c-4.853 3.907-9.373 7.546-15.352 10.079a54.246 54.246 0 01-19.813 4.288v2.11a1.5 1.5 0 01-3 0v-2.11a54.23 54.23 0 01-19.81-4.287 54.255 54.255 0 01-16.331-10.677l-1.489 1.489a1.5 1.5 0 11-2.121-2.122l1.489-1.488a54.675 54.675 0 01-10.7-16.34 54.245 54.245 0 01-4.287-19.802h-2.088a1.5 1.5 0 110-3h2.089a56.311 56.311 0 014.454-20.363c2.707-6.344 6.152-11.216 10.707-15.598l-1.665-1.669c-.2-.2-.332-.444-.395-.7l-.684-.753c-10.656 10.256-16.586 24.766-16.586 40.585 0 7.963 1.56 15.675 4.631 22.935a58.684 58.684 0 0012.626 18.724 58.684 58.684 0 0018.724 12.626c7.272 3.072 14.985 4.631 22.936 4.631 8.225 0 15.263-2.117 22.959-4.654a58.692 58.692 0 0018.724-12.627 58.692 58.692 0 0012.627-18.724 58.624 58.624 0 004.631-22.935c0-7.942-1.628-15.661-4.815-22.955-3.06-6.991-7.434-13.287-13.002-18.715a60.62 60.62 0 00-19.087-12.613c-6.891-2.867-13.205-4.209-20.513-4.367v4.16c6.737.156 12.522 1.386 18.909 4.049a56.594 56.594 0 0116.947 10.954l1.737-1.74a1.5 1.5 0 112.123 2.12z" fill="#10C14C"/><path fill-rule="evenodd" clip-rule="evenodd" d="M123.948 76.574a1.5 1.5 0 012.121.027l37.505 38.472a1.5 1.5 0 01-2.148 2.094l-37.505-38.472a1.499 1.499 0 01.027-2.121z" fill="#FE5244"/><path d="M155.185 111.358a2.97 2.97 0 100-5.942 2.97 2.97 0 000 5.942z" fill="#fff"/><path d="M172.875 45.375l.536-3.823a1.423 1.423 0 011.822-1.144l.006.002 3.75 1.134a1.433 1.433 0 01.882 1.97l-1.806 3.635a1.5 1.5 0 002.687 1.335l1.821-3.666.007-.014c1.153-2.45-.141-5.354-2.726-6.133h-.001l-3.742-1.132a4.423 4.423 0 00-5.668 3.577l-.539 3.843a1.5 1.5 0 002.971.416z" fill="#10C14C"/><path fill-rule="evenodd" clip-rule="evenodd" d="M155.185 103.916a4.472 4.472 0 100 8.943 4.472 4.472 0 000-8.943zm-1.472 4.471a1.472 1.472 0 112.943.001 1.472 1.472 0 01-2.943-.001z" fill="#10C14C"/></symbol><symbol id="icon__tv" viewBox="0 0 304 217"><g clip-path="url(#clip0)"><circle cx="152" cy="108" r="108" fill="#EFF1F4"/><path d="M193.406 171.588h68.008c7.004 0 12.687-5.682 12.667-12.686V28.666A12.656 12.656 0 00261.414 16H75.186a12.656 12.656 0 00-12.667 12.666v130.256a12.655 12.655 0 0012.667 12.666h74.322L135.322 216h72.29l-14.206-44.412z" fill="#fff"/><path fill-rule="evenodd" clip-rule="evenodd" d="M64.02 30.487v128.435c0 6.176 4.99 11.166 11.166 11.166h186.228c6.177 0 11.184-5.01 11.167-11.182v-1.825l3 1.821c.02 7.835-6.336 14.186-14.167 14.186h-65.953l14.205 44.412h-76.398l14.186-44.412H75.186c-7.833 0-14.167-6.334-14.167-14.166V28.667c0-7.833 6.334-14.167 14.167-14.167h186.228c7.833 0 14.167 6.334 14.167 14.166v130.232l-3-1.821V28.667A11.156 11.156 0 00261.414 17.5H75.186a11.156 11.156 0 00-11.167 11.166v1.821zm126.436 142.601h1.855l13.246 41.412h-68.181l5.503-17.229 47.577-24.183z" fill="#10C14C"/><path d="M260.507 159.474H120.84l-8.188 11.739c-9.253 13.259-28.805 13.456-38.315.375l-49.876-68.6c2.091 2.604 11.66-.296 20.775-6.294 9.253-6.096 15.231-13.771 13.357-16.612l34.586 44.076 10.595-18.704a20.924 20.924 0 0113.318-9.805l36.046-7.636h31.074l34.251 7.557a21.003 21.003 0 0113.87 10.634l28.174 53.27z" fill="#fff"/><path fill-rule="evenodd" clip-rule="evenodd" d="M169.356 101.942a3.73 3.73 0 10-.002 7.458 3.73 3.73 0 00.002-7.458zm-.73 3.729a.73.73 0 111.459 0 .73.73 0 01-1.459 0zM169.356 119.896a3.73 3.73 0 10-.002 7.458 3.73 3.73 0 00.002-7.458zm-.73 3.729a.73.73 0 111.459 0 .73.73 0 01-1.459 0zM59.264 87.934a3.73 3.73 0 100 7.459 3.73 3.73 0 000-7.46zm-.73 3.73a.73.73 0 111.46 0 .73.73 0 01-1.46 0z" fill="#10C14C"/><path fill-rule="evenodd" clip-rule="evenodd" d="M57.341 80.908l2.432-1.752 33.205 42.315 9.496-16.766.006-.009a22.424 22.424 0 0114.272-10.509l.015-.003 36.214-7.67h31.395l34.421 7.593a22.502 22.502 0 0114.861 11.393l.001.003 29.338 55.471H121.623l-.783 1.122v10.064h-7.02c-9.867 14.015-30.6 14.196-40.696.31l-43.103-59.284a3.275 3.275 0 01-.14-.162 1.522 1.522 0 01-.17-.264l-6.463-8.89 2.382-1.821c.084.104.476.397 1.678.398 1.13 0 2.65-.264 4.472-.816 3.628-1.099 8.169-3.253 12.63-6.19 4.524-2.98 8.205-6.32 10.504-9.208 1.155-1.451 1.91-2.723 2.274-3.727.384-1.054.229-1.483.153-1.598zm-22.64 33.615l40.85 56.183c8.903 12.246 27.208 12.062 35.871-.351l7.207-10.332c.023-.068.051-.135.084-.201l9.825-19.394a1.5 1.5 0 112.677 1.356l-8.203 16.19h97.129l-9.231-18.223a1.5 1.5 0 012.676-1.355l9.918 19.578h34.513l-27.01-51.069a19.501 19.501 0 00-12.873-9.872l-17.916-3.953-19.571 16.615-9.254-11.26a1.5 1.5 0 112.318-1.904l7.318 8.905 15.51-13.167-12.49-2.756h-30.754l-12.627 2.675 17.25 13.66 7.12-9.092a1.499 1.499 0 112.362 1.85l-8.98 11.466-21.565-17.077-19.438 4.118a19.423 19.423 0 00-12.343 9.09l-10.128 17.879 8.471 10.832a1.5 1.5 0 01-2.363 1.848l-22.512-28.786a1.476 1.476 0 01-.15-.233l-11.7-14.91c-.548 1.311-1.444 2.725-2.58 4.16-2.546 3.221-6.5 6.811-11.26 9.967-4.675 3.104-9.522 5.424-13.522 6.635-1.672.507-3.247.835-4.628.928zm29.391-25.004c.032.07.07.138.112.204.08.12.233.562-.155 1.633-.368 1.018-1.128 2.307-2.29 3.777-2.312 2.924-6.013 6.309-10.565 9.328-4.48 2.973-9.063 5.152-12.733 6.263-1.843.558-3.384.826-4.53.825-1.007 0-1.457-.202-1.634-.334l-4.214-5.795c1.364-.093 2.918-.418 4.567-.918 3.957-1.199 8.758-3.493 13.41-6.555 4.73-3.116 8.666-6.662 11.201-9.846 1.11-1.394 1.992-2.769 2.54-4.05l4.291 5.468z" fill="#10C14C"/><path d="M45.019 96.102c-9.115 5.998-18.684 8.898-20.775 6.294-.04-.039-.06-.079-.1-.138-.433-.651-.394-1.539 0-2.624 1.362-3.571 6.985-9.096 14.127-13.791 5.682-3.749 11.286-6.353 15.172-7.162 2.25-.454 3.927-.316 4.736.552l.197.237c1.855 2.841-4.104 10.536-13.357 16.632z" fill="#FE5244"/><path d="M45.019 96.103c-5.189 3.413-10.536 5.839-14.56 6.787L12.445 77.478c-2.505-3.552-1.677-8.464 1.894-10.97l16.218-11.404-9.194-15.645a4.754 4.754 0 011.717-6.531 4.684 4.684 0 012.367-.631c1.559 0 3.098.77 4.005 2.19L58.2 79.194l.197.316c1.835 2.801-4.124 10.496-13.377 16.593z" fill="#EBA690"/><path d="M29.704 54.021a1.5 1.5 0 012.074.447l10.048 15.576a4.652 4.652 0 01-1.394 6.401l-.003.002-2.217 1.452-.004.003a4.635 4.635 0 01-3.374.698 4.664 4.664 0 01-2.008 2.785l-.008.005-2.029 1.28-.002.001a4.656 4.656 0 01-3.325.654 4.624 4.624 0 01-2.03 2.725l-.034.021-1.89 1.044c-2.1 1.309-4.834.736-6.266-1.269l-.003-.004-5.386-7.596a1.5 1.5 0 012.447-1.735l5.383 7.592.002.002a1.663 1.663 0 002.252.454l.04-.026 1.896-1.047c.683-.444.93-1.303.621-2.035-.035-.05-.07-.1-.103-.15a1.506 1.506 0 01-.14-.268l-9.183-13.649a1.5 1.5 0 112.489-1.674l9.298 13.819.006.008c.065.101.127.203.184.307.53.596 1.435.739 2.136.294l.003-.003 2.028-1.28a1.689 1.689 0 00.496-2.333 1.528 1.528 0 01-.083-.144l-9.359-14.009a1.5 1.5 0 112.495-1.666l9.496 14.213.005.009c.493.76 1.529.98 2.293.473l.007-.004 2.23-1.46.005-.004a1.652 1.652 0 00.5-2.274l-10.04-15.561a1.5 1.5 0 01.447-2.074z" fill="#935D5D"/><path d="M51.49 68.776l-4.715-7.32a5.138 5.138 0 00-7.201-1.479l-11.7 7.931s3.393 6.097 11.64 1.263l2.763 4.4c-5.643 3.57-7.26 11.088-3.591 16.671L51.49 68.776z" fill="#EBA690"/><path d="M52.14 68.162l-4.715-7.319c-2.013-3.133-6.218-4.002-9.304-1.91l-.009.005-12.208 8.516.66 1.184 1.31-.73c-1.31.73-1.31.732-1.31.732l.001.002.003.004.006.01.016.028a4.32 4.32 0 00.213.33 8.366 8.366 0 003.14 2.685c2.166 1.061 5.182 1.343 9.046-.544l1.266 2.017c-4.337 3.469-6.029 9.22-4.462 14.397-4.211 3.031-7.708 6.256-9.813 9.007l4.479 6.313c4.024-.947 9.371-3.373 14.56-6.787 8.957-5.919 14.857-13.317 13.515-16.336a.436.436 0 00-.03-.05.436.436 0 01-.045-.086.103.103 0 00-.024-.041c-.01-.02-.02-.035-.03-.05-.01-.015-.019-.03-.029-.05l-.197-.236c-.81-.868-2.486-1.006-4.735-.552-3.851.801-9.388 3.365-15.016 7.059-.838-4.126.878-8.534 4.65-10.922l1.264-.799-4.33-6.898-1.256.736c-3.762 2.205-6.138 1.793-7.495 1.128a5.28 5.28 0 01-1.188-.801l9.738-6.793a3.638 3.638 0 015.09 1.054l4.717 7.321a1.5 1.5 0 102.522-1.624z" fill="#935D5D"/><path d="M184.192 70.65v17.343c0 5.031-6.984 9.095-15.566 9.095-8.603 0-15.567-4.064-15.567-9.095V70.651h31.133z" fill="#EBA690"/><path d="M157.616 94.425c-2.821-1.637-4.577-3.926-4.577-6.432V70.651h31.153v4.814c0 4.992-3.038 9.47-7.655 11.344l-18.921 7.616z" fill="#935D5D"/><path d="M192.873 69.625v.296a5.422 5.422 0 01-5.425 5.425h-3.571c-1.204 4.854-5.584 8.465-10.832 8.465h-8.839c-5.228 0-9.628-3.591-10.812-8.465h-3.571a5.423 5.423 0 01-5.426-5.425v-.296a5.423 5.423 0 015.426-5.426h3.236v-4.281a9.083 9.083 0 017.773-8.997c.967 1.618 3.887 5.485 9.845 5.268 2.802-.099 5.406-.631 7.557-1.263 2.584-.75 5.169.829 5.82 3.295.099.553.158 1.105.158 1.677v4.282h3.236c2.979 0 5.425 2.446 5.425 5.445z" fill="#EBA690"/><path d="M186.678 64.18h-2.486v-4.755c0-.414-.059-.829-.157-1.204-.652-2.466-3.236-4.044-5.821-3.294-2.15.63-4.735 1.164-7.556 1.262-5.959.217-8.879-3.65-9.845-5.268a9.083 9.083 0 00-7.774 8.997V64.2h-3.097s-3.552-12.845-.888-16.475c2.624-3.57 5.781-2.012 5.781-2.012s-1.894-10.694 8.681-10.496c10.555.197 24.287 12.449 25.293 14.698 1.579 3.453-2.131 14.265-2.131 14.265z" fill="#935D5D"/><path d="M156.624 60.805a1.5 1.5 0 002.087.33l.003-.002.053-.035a3.81 3.81 0 01.264-.152c.244-.13.608-.296 1.062-.426.9-.258 2.135-.37 3.539.212a1.5 1.5 0 101.149-2.771 8.274 8.274 0 00-5.513-.326 8.543 8.543 0 00-1.645.661 5.557 5.557 0 00-.673.41l-.001.001.197-.128-.199.13c-.447.291-.929 1.531-.323 2.096zM180.431 60.805c.569-.805.569-1.305-.325-2.097-.895-.793-.001-.001-.001-.001a5.054 5.054 0 00-.674-.41 8.529 8.529 0 00-1.645-.661 8.271 8.271 0 00-5.512.325 1.5 1.5 0 101.148 2.771 5.273 5.273 0 013.539-.212 5.5 5.5 0 011.062.426c.121.064.211.119.265.153l.052.034.004.003c.667.481 1.517.474 2.087-.331zM174.898 75.112c.102-.112.374-1.483-.728-1.994a1.5 1.5 0 00-1.982.708l-.005.009-.004.007-.008.015c-.024.04-.067.108-.132.194a2.488 2.488 0 01-.64.581c-.528.332-1.579.713-3.517-.002a1.5 1.5 0 10-1.038 2.815c2.718 1.002 4.755.604 6.151-.273a5.47 5.47 0 001.423-1.294c.15-.195.261-.369.339-.502.051-.086.099-.174.141-.264z" fill="#935D5D"/><path d="M167.315 71.282a1.5 1.5 0 100 3h3.038a1.5 1.5 0 10-.001-3h-3.037zM161.898 68.146c.545 0 .987-.742.987-1.657 0-.916-.442-1.657-.987-1.657-.545 0-.986.742-.986 1.657s.441 1.657.986 1.657zM177.031 66.489c0 .915-.442 1.657-.987 1.657-.544 0-.986-.742-.986-1.657 0-.916.442-1.657.986-1.657.545 0 .987.742.987 1.657zM146.587 66.824a1.5 1.5 0 011.5-1.5 5.31 5.31 0 015.308 5.308 1.5 1.5 0 01-3 0 2.31 2.31 0 00-2.308-2.308 1.5 1.5 0 01-1.5-1.5zM189.204 68.324a2.31 2.31 0 00-2.308 2.308 1.5 1.5 0 01-3 0 5.31 5.31 0 015.308-5.308 1.5 1.5 0 010 3z" fill="#935D5D"/><path fill-rule="evenodd" clip-rule="evenodd" d="M169.572 63.686a3.665 3.665 0 013.671-3.67h6.214a3.665 3.665 0 013.671 3.67v6.215c0 2.003-1.63 3.67-3.671 3.67h-6.214a3.665 3.665 0 01-3.671-3.67V67.12h-1.656v2.77c.026 2.04-1.657 3.682-3.67 3.682h-6.215a3.664 3.664 0 01-3.67-3.67v-6.215a3.664 3.664 0 013.67-3.67h6.215a3.664 3.664 0 013.67 3.67v.433h1.656v-.434zm3.671-.67a.664.664 0 00-.671.67v6.215c0 .375.295.67.671.67h6.214a.677.677 0 00.671-.67v-6.215a.665.665 0 00-.671-.67h-6.214zm-15.212 0a.664.664 0 00-.67.67v6.215c0 .376.295.67.67.67h6.215c.389 0 .676-.322.67-.644v-6.24a.664.664 0 00-.67-.67h-6.215z" fill="#fff"/><path d="M170.855 147.202h-7.3a2.113 2.113 0 01-2.111-2.111v-5.11c0-1.164.947-2.111 2.111-2.111h7.3c1.164 0 2.111.947 2.111 2.111v5.11a2.113 2.113 0 01-2.111 2.111zM175.708 145.565l2.25 1.499a.788.788 0 001.223-.691v-7.635c0-.671-.691-1.065-1.223-.71l-2.25 1.499a2.286 2.286 0 00-.986 1.894v2.25c0 .769.375 1.479.986 1.894z" fill="#66B0F0"/><path fill-rule="evenodd" clip-rule="evenodd" d="M154.479 136.805a5.05 5.05 0 015.051-5.052h21.565a5.05 5.05 0 015.051 5.052v11.463a5.049 5.049 0 01-5.051 5.051H159.53a5.049 5.049 0 01-5.051-5.051v-11.463zm5.051-2.052a2.05 2.05 0 00-2.051 2.052v11.463c0 1.139.921 2.051 2.051 2.051h21.565a2.049 2.049 0 002.051-2.051v-11.463a2.05 2.05 0 00-2.051-2.052H159.53z" fill="#66B0F0"/></g></symbol><symbol id="icon__woman" viewBox="0 0 304 216"><circle cx="152" cy="108" r="108" fill="#EFF1F4"/><path d="M172.607 68.844l32.04 9.041c14.023 3.836 24.193 15.996 25.467 30.48L235 162.402H65.44l15.663-60.722a29.684 29.684 0 0120.23-21.153l37.42-11.683h33.854z" fill="#10C14C"/><path d="M137.451 67.204a1.5 1.5 0 011.907.928l2.744 7.947c.194.258.292.562.299.865l6.67 19.32 15.704-19.608a1.492 1.492 0 01.832-1.039l6.354-7.933a1.5 1.5 0 012.342 1.875l-1.816 2.268a1.544 1.544 0 01-1.925 2.403l-2.268 2.831 8.234 9.543 2.036-2.903a1.544 1.544 0 011.731-2.467l5.677-8.092a1.702 1.702 0 01-.011-.19c0-.111.016-.223.032-.334l.297.084a1.5 1.5 0 012.616.742l.063.017c-.014.041-.03.081-.047.12.023.331-.064.671-.269.963L176.772 91.48l-10.385-12.037-1.687 2.106a1.544 1.544 0 01-1.922 2.4l-6.104 7.62a1.544 1.544 0 01-1.813 2.264l-6.229 7.777a1.543 1.543 0 11-1.078-.438h.038l-7.451-21.58-11.836 10.052-7.957-15.037A1.5 1.5 0 01123 73.204l6.209 11.736 9.881-8.392-.845-2.45a1.54 1.54 0 01-.488-1.413l-1.234-3.574a1.5 1.5 0 01.928-1.907zM107.126 93.913a1.544 1.544 0 100-3.087 1.544 1.544 0 000 3.088zM92.594 92.371a1.544 1.544 0 11-3.087 0 1.544 1.544 0 013.087 0zM99.327 104.259a1.543 1.543 0 10.001-3.087 1.543 1.543 0 000 3.087zM84.795 102.716a1.544 1.544 0 11-3.088 0 1.544 1.544 0 013.088 0zM123.202 114.765a1.544 1.544 0 100-3.089 1.544 1.544 0 000 3.089zM92.594 113.221a1.544 1.544 0 11-3.087 0 1.544 1.544 0 013.087 0zM99.327 125.427a1.544 1.544 0 100-3.087 1.544 1.544 0 000 3.087zM84.795 123.884a1.544 1.544 0 11-3.087 0 1.544 1.544 0 013.087 0zM76.519 134.231a1.544 1.544 0 11-3.088 0 1.544 1.544 0 013.088 0zM84.795 145.371a1.544 1.544 0 11-3.087 0 1.544 1.544 0 013.087 0zM74.975 157.739a1.544 1.544 0 100-3.088 1.544 1.544 0 000 3.088zM91.05 157.739a1.544 1.544 0 100-3.088 1.544 1.544 0 000 3.088zM108.67 156.195a1.544 1.544 0 11-3.087 0 1.544 1.544 0 013.087 0zM123.202 157.739a1.544 1.544 0 100-3.087 1.544 1.544 0 000 3.087zM140.822 156.195a1.544 1.544 0 11-3.089 0 1.544 1.544 0 013.089 0zM155.353 157.739a1.544 1.544 0 100-3.087 1.544 1.544 0 000 3.087zM172.973 156.195a1.544 1.544 0 11-3.087 0 1.544 1.544 0 013.087 0zM187.505 157.739a1.544 1.544 0 100-3.087 1.544 1.544 0 000 3.087zM205.125 156.195a1.544 1.544 0 11-3.089 0 1.544 1.544 0 013.089 0zM219.656 157.739a1.544 1.544 0 100-3.087 1.544 1.544 0 000 3.087zM99.327 146.916a1.544 1.544 0 100-3.089 1.544 1.544 0 000 3.089zM115.609 146.902a1.544 1.544 0 10-1.643-.963l-1.274-.748a13.302 13.302 0 01-6.457-9.699 1.544 1.544 0 10-.102-2.443c.038-.772.145-1.548.322-2.32l5.078-22.156a1.5 1.5 0 00-2.924-.67l-.825 3.598-.767-3.578a1.5 1.5 0 10-2.933.629l2.115 9.866-2.668 11.64a16.305 16.305 0 007.643 17.721l2.57 1.507v13.577a1.5 1.5 0 103 0v-15.295l-1.135-.666zM131.478 146.916a1.544 1.544 0 100-3.089 1.544 1.544 0 000 3.089zM149.098 145.372a1.544 1.544 0 11-3.089 0 1.544 1.544 0 013.089 0zM163.63 146.916a1.544 1.544 0 100-3.089 1.544 1.544 0 000 3.089zM181.25 145.372a1.545 1.545 0 11-3.09-.002 1.545 1.545 0 013.09.002zM196.593 162.974l-1.183-16.103a1.546 1.546 0 01-.215-2.928l-2.103-28.607a1.5 1.5 0 112.992-.22l.534 7.265a1.545 1.545 0 01.216 2.936l2.751 37.437a1.5 1.5 0 11-2.992.22zM213.401 145.372a1.544 1.544 0 11-3.089 0 1.544 1.544 0 013.089 0zM227.933 146.916a1.544 1.544 0 100-3.089 1.544 1.544 0 000 3.089zM91.05 135.775a1.544 1.544 0 100-3.088 1.544 1.544 0 000 3.088zM123.202 135.775a1.544 1.544 0 100-3.087 1.544 1.544 0 000 3.087zM140.822 134.231a1.544 1.544 0 11-3.089 0 1.544 1.544 0 013.089 0zM155.353 135.775a1.544 1.544 0 100-3.087 1.544 1.544 0 000 3.087zM172.973 134.231a1.544 1.544 0 11-3.087 0 1.544 1.544 0 013.087 0zM187.505 135.775a1.544 1.544 0 100-3.087 1.544 1.544 0 000 3.087zM205.125 134.231a1.544 1.544 0 11-3.089 0 1.544 1.544 0 013.089 0zM219.656 135.775a1.544 1.544 0 100-3.087 1.544 1.544 0 000 3.087z" fill="#fff"/><path d="M116.947 123.883a1.544 1.544 0 11-3.089 0 1.544 1.544 0 013.089 0zM131.478 125.427a1.544 1.544 0 100-3.087 1.544 1.544 0 000 3.087zM149.098 123.883a1.544 1.544 0 11-3.087 0 1.544 1.544 0 013.087 0zM163.63 125.427a1.544 1.544 0 100-3.087 1.544 1.544 0 000 3.087zM181.25 123.883a1.544 1.544 0 11-3.089 0 1.544 1.544 0 013.089 0zM213.401 123.883a1.544 1.544 0 11-3.087 0 1.544 1.544 0 013.087 0zM227.933 125.427a1.544 1.544 0 100-3.087 1.544 1.544 0 000 3.087zM140.821 113.221a1.544 1.544 0 11-3.088 0 1.544 1.544 0 013.088 0zM155.353 114.765a1.544 1.544 0 100-3.089 1.544 1.544 0 000 3.089zM172.973 113.221a1.544 1.544 0 11-3.089 0 1.544 1.544 0 013.089 0zM187.505 114.765a1.544 1.544 0 100-3.089 1.544 1.544 0 000 3.089zM205.125 113.221a1.545 1.545 0 11-3.09-.002 1.545 1.545 0 013.09.002zM219.656 114.765a1.544 1.544 0 100-3.089 1.544 1.544 0 000 3.089zM116.947 102.716a1.544 1.544 0 11-3.088-.002 1.544 1.544 0 013.088.002zM131.478 104.259a1.543 1.543 0 10.001-3.087 1.543 1.543 0 00-.001 3.087zM163.63 104.259a1.543 1.543 0 10.001-3.087 1.543 1.543 0 00-.001 3.087zM181.25 102.716a1.544 1.544 0 11-3.088-.002 1.544 1.544 0 013.088.002zM195.782 104.259a1.544 1.544 0 100-3.088 1.544 1.544 0 000 3.088zM213.401 102.716a1.543 1.543 0 11-3.087 0 1.543 1.543 0 013.087 0zM227.137 104.259a1.543 1.543 0 10.001-3.087 1.543 1.543 0 00-.001 3.087zM124.746 92.37a1.544 1.544 0 11-3.088 0 1.544 1.544 0 013.088 0zM139.278 93.913a1.544 1.544 0 10-.001-3.087 1.544 1.544 0 00.001 3.088zM171.429 93.913a1.544 1.544 0 100-3.087 1.544 1.544 0 000 3.088zM189.049 92.37a1.544 1.544 0 11-3.088 0 1.544 1.544 0 013.088 0zM203.581 93.913a1.544 1.544 0 100-3.088 1.544 1.544 0 000 3.088zM221.2 92.37a1.544 1.544 0 11-3.088 0 1.544 1.544 0 013.088 0zM156.897 72.952a1.544 1.544 0 11-3.088 0 1.544 1.544 0 013.088 0zM99.327 84.205a1.544 1.544 0 100-3.087 1.544 1.544 0 000 3.087zM116.946 82.661a1.544 1.544 0 11-3.087.001 1.544 1.544 0 013.087 0zM129.95 82.151a1.544 1.544 0 100-3.087 1.544 1.544 0 000 3.088zM149.098 82.661a1.544 1.544 0 11-3.088 0 1.544 1.544 0 013.088 0zM195.781 84.205a1.544 1.544 0 100-3.087 1.544 1.544 0 000 3.087zM213.401 82.661a1.544 1.544 0 11-3.088 0 1.544 1.544 0 013.088 0z" fill="#fff"/><path d="M150.229 204.151h-43.628l-19.29-30.13h43.627l19.291 30.13z" fill="#FFCF2D"/><path d="M123.918 197.609H80.275L61 167.495h43.627l19.291 30.114z" fill="#fff"/><path fill-rule="evenodd" clip-rule="evenodd" d="M59.684 166.775a1.5 1.5 0 011.316-.78h43.627a1.5 1.5 0 011.263.691l19.291 30.114a1.5 1.5 0 01-1.263 2.309H80.275a1.5 1.5 0 01-1.263-.691l-19.275-30.114a1.5 1.5 0 01-.053-1.529zm4.057 2.22l17.355 27.114h40.08l-17.369-27.114H63.741z" fill="#3FB1B5"/><path fill-rule="evenodd" clip-rule="evenodd" d="M83.079 172.965l-.469.606-.014.017c-.608.74-1.508.881-2.121.872-.668-.009-1.377-.191-2.046-.476l-.005-.002-1.635-.706a2.634 2.634 0 00-.828-.232l-.406.516-.01.012c-.608.74-1.508.881-2.121.872-.668-.009-1.377-.191-2.046-.476l-.005-.002-1.624-.701a1.5 1.5 0 111.188-2.754l1.62.699c.369.156.662.219.847.232l.391-.497s0 .001 0 0l.001-.001c.6-.762 1.517-.908 2.128-.902.673.006 1.39.188 2.07.487l1.612.696.003.001c.366.155.657.218.843.232l.458-.592c.6-.764 1.518-.909 2.129-.904.674.007 1.393.189 2.073.489l.002.001 2.138.934c.367.156.659.218.844.231l.581-.735.002-.003c.6-.761 1.516-.906 2.127-.901.674.007 1.394.189 2.074.489l.002.001 2.456 1.078c.365.155.656.217.841.23l.644-.826a1.5 1.5 0 012.366 1.844l-.855 1.098-.012.015c-.608.739-1.508.88-2.122.872-.668-.01-1.376-.191-2.045-.477l-.007-.003-2.477-1.086a2.586 2.586 0 00-.829-.232l-.597.755-.009.011c-.608.74-1.508.881-2.121.872-.668-.009-1.377-.19-2.046-.476l-.012-.005-2.154-.941a2.633 2.633 0 00-.824-.232zm-6.925-.166v.001-.001zM88.06 179.332l-.468.606-.014.017c-.608.739-1.508.88-2.121.872-.668-.01-1.377-.191-2.046-.477l-.006-.002-1.635-.705a2.607 2.607 0 00-.827-.232l-.406.516-.01.012c-.608.739-1.508.88-2.121.872-.669-.01-1.377-.191-2.046-.476a1.5 1.5 0 011.177-2.76c.37.158.663.22.85.233l.39-.496.001-.001c.6-.763 1.517-.908 2.128-.903.673.007 1.39.189 2.07.487l1.615.697c.366.156.657.218.843.232l.458-.592c.6-.763 1.517-.909 2.128-.903.675.006 1.393.189 2.074.488l.002.001 2.138.935c.367.156.659.217.844.231l.581-.736.002-.002c.6-.762 1.516-.907 2.127-.901.674.006 1.394.189 2.074.489h.001l2.457 1.078c.365.155.656.217.841.23l.644-.826a1.5 1.5 0 012.366 1.845l-.855 1.097-.013.015c-.607.74-1.507.881-2.121.872-.668-.009-1.376-.191-2.046-.476l-.007-.003-2.474-1.086-.003-.001a2.613 2.613 0 00-.828-.232l-.597.756-.01.011c-.607.74-1.507.881-2.12.872-.668-.01-1.377-.191-2.046-.476l-.012-.006-2.154-.941a2.597 2.597 0 00-.824-.231zm7.958-.23l-.002.003.002-.003zM93.043 185.682l-.47.606-.013.017c-.608.74-1.508.881-2.121.872-.668-.009-1.377-.191-2.046-.476l-.006-.002-1.634-.706a2.6 2.6 0 00-.828-.231l-.406.515-.01.012c-.608.74-1.508.881-2.121.872-.668-.009-1.377-.19-2.046-.476l-.006-.002-1.623-.701a1.5 1.5 0 111.188-2.754l1.62.699c.369.157.662.219.847.232l.391-.497s0 .001 0 0l.001-.001c.6-.762 1.517-.908 2.128-.902.673.006 1.39.188 2.07.487l1.612.696.003.001c.366.155.657.218.843.232l.458-.592c.6-.764 1.517-.909 2.129-.904.674.007 1.392.189 2.073.489l.002.001 2.138.934c.367.156.659.218.844.231l.581-.735.002-.002c.6-.762 1.516-.907 2.127-.902.674.007 1.394.189 2.074.489l.002.001 2.456 1.078c.365.155.656.217.841.23l.644-.826a1.5 1.5 0 012.366 1.844l-.855 1.098-.012.015c-.608.739-1.508.88-2.122.872-.668-.01-1.376-.191-2.045-.477l-.007-.003-2.477-1.086a2.59 2.59 0 00-.829-.232l-.597.755-.009.011c-.608.74-1.508.881-2.121.872-.668-.009-1.377-.19-2.046-.476l-.012-.005-2.154-.941a2.633 2.633 0 00-.824-.232zm7.957-.23l-.002.004.002-.004zm-14.882.064v.001-.001zM98.025 192.049l-.47.606-.013.017c-.608.74-1.508.881-2.121.872-.668-.009-1.377-.191-2.046-.476l-.006-.003-1.635-.705a2.607 2.607 0 00-.827-.232l-.406.516-.01.012c-.608.74-1.508.881-2.121.872-.668-.009-1.377-.191-2.046-.476l-.006-.003-1.623-.7a1.5 1.5 0 111.188-2.755l1.62.699c.369.157.661.219.847.233l.391-.497v-.001c.001 0 0 0 0 0 .6-.762 1.518-.908 2.129-.902.673.006 1.39.188 2.07.487l1.612.695.002.001c.367.156.658.219.844.232l.458-.591c.6-.764 1.517-.91 2.129-.904.674.006 1.392.189 2.073.489l.002.001 2.138.934c.367.156.659.218.844.231l.581-.736.002-.002c.6-.761 1.516-.907 2.127-.901.674.006 1.394.189 2.074.489l.001.001 2.457 1.077c.365.155.656.217.841.231l.644-.826a1.5 1.5 0 012.366 1.844l-.855 1.097-.013.015c-.607.74-1.507.881-2.121.872-.668-.009-1.376-.191-2.045-.476l-.007-.003-2.477-1.087c-.357-.157-.645-.219-.829-.231l-.597.755-.009.011c-.608.74-1.508.881-2.121.872-.668-.009-1.377-.191-2.046-.476l-.012-.005-2.154-.942a2.597 2.597 0 00-.824-.231zm7.957-.23l-.002.003.002-.003z" fill="#3FB1B5"/><path d="M132.481 180.292h83.69c11.078 0 19.752-9.534 18.702-20.548-1.051-11.062-11.412-18.814-22.315-16.681l-96.311 13.418a11.534 11.534 0 00-8.58 5.969l-8.53 15.852c-.303.398-.51.86-.638 1.337L95.3 192.007H97.1a7.556 7.556 0 006.669-4.011l1.607-3.009 18.511 2.006c3.47.43 6.765-1.942 8.007-5.189l.588-1.512z" fill="#EBA690"/><path d="M136.45 173.177a1.5 1.5 0 10-2.844-.954l-2.547 7.592a1.5 1.5 0 002.844.954l2.547-7.592zM112.488 173.526a1.5 1.5 0 00-2.702-1.304l-5.587 11.571a1.5 1.5 0 002.702 1.305l5.587-11.572zM119.937 174.259a1.5 1.5 0 00-2.702-1.305l-5.587 11.572a1.5 1.5 0 002.702 1.304l5.587-11.571zM126.51 173.162a1.5 1.5 0 01.701 2.002l-5.571 11.572a1.5 1.5 0 11-2.703-1.302l5.571-11.571a1.5 1.5 0 012.002-.701z" fill="#935D5D"/><path d="M153.077 14.346s10.951-6.876 21.647 1.798c10.091 8.197 5.38 24.353 1.687 21.647-3.167-2.308 21.519-10.187 29.255 8.101 8.77 20.724-10.983 32.486-33.505 22.236h-32.676l-34.746 10.839s-17.652-8.977-8.054-26.485c8.865-16.156 30.05-10.394 27.663-6.399-3.358 5.603-17.715-12.128-7.624-28.872 10.664-17.7 34.889-11.11 36.353-2.865z" fill="#fff"/><path d="M153.517 23.347a1.5 1.5 0 00-2.89-.774c-.057.156-.121.31-.186.462-.138.32-.353.79-.658 1.356a20.751 20.751 0 01-2.951 4.162c-3.157 3.446-12.229 8.932-16.862 5.11-.538-.444-.868-1.07-.983-1.845-.241-1.622.506-3.709 1.974-5.047a1.5 1.5 0 00-2.021-2.217c-2.128 1.94-3.323 4.994-2.92 7.706.207 1.392.846 2.73 2.04 3.716 1.191.983 2.799 1.502 4.746 1.516 7.853.051 13.043-3.424 16.239-6.913a23.606 23.606 0 001.658-2.03c.667 2.648 2.109 4.771 3.605 6.358a19.758 19.758 0 004.673 3.626 14.245 14.245 0 00.457.24l.03.014.01.005.004.002h.002s.001.001.644-1.353l-.643 1.354a1.5 1.5 0 001.288-2.709h-.001l-.009-.005-.022-.011-.041-.02a15.212 15.212 0 01-1.268-.75 16.746 16.746 0 01-2.942-2.452c-2.04-2.163-3.771-5.292-2.973-9.5z" fill="#FFCF2D"/><path fill-rule="evenodd" clip-rule="evenodd" d="M149.019 7.522c2.134 1.21 3.948 2.811 4.904 4.7a22.392 22.392 0 015.736-1.713c4.403-.685 10.268-.187 16.01 4.47h.001c5.539 4.5 6.966 11.14 6.562 16.197a18.82 18.82 0 01-.241 1.862 28.113 28.113 0 014.965-.42c7.098.03 15.907 2.798 20.091 12.69 2.29 5.411 2.772 10.369 1.705 14.609-1.07 4.253-3.668 7.656-7.297 9.972-7.155 4.568-18.163 4.86-29.616-.261h-32.126l-35.11 10.953-.544-.277.68-1.337c-.68 1.337-.682 1.336-.682 1.336h-.002l-.005-.003-.015-.008-.048-.026a18.098 18.098 0 01-.762-.435c-.499-.3-1.191-.745-1.987-1.335-1.586-1.175-3.617-2.95-5.34-5.326-1.727-2.383-3.162-5.397-3.497-9.026-.336-3.638.445-7.78 2.969-12.384 4.569-8.326 12.215-11.221 18.573-11.511-2.77-6.172-3.74-15.124 1.496-23.813 5.682-9.43 15.003-12.376 23.004-11.884 3.989.245 7.714 1.345 10.576 2.97zm-31.01 10.463c4.982-8.27 13.106-10.878 20.25-10.439 3.582.22 6.855 1.208 9.28 2.585 2.484 1.41 3.81 3.061 4.061 4.477l.39 2.192 1.882-1.182h.001l.002-.002.011-.007.072-.042c.068-.04.174-.1.317-.177.287-.153.717-.368 1.269-.603a19.384 19.384 0 014.577-1.313c3.745-.583 8.704-.182 13.658 3.835 4.551 3.697 5.814 9.233 5.462 13.627a14.868 14.868 0 01-.515 2.919c-.249.084-.487.17-.714.259-1.052.411-2.033.932-2.649 1.57-.302.312-.694.836-.729 1.544-.039.82.41 1.422.89 1.773l.004.002c.876.64 1.914.763 2.877.349.854-.367 1.505-1.09 1.985-1.844.229-.36.442-.763.635-1.2 1.647-.412 3.696-.7 5.919-.69 6.387.026 13.789 2.463 17.34 10.859 2.095 4.95 2.433 9.234 1.559 12.708-.871 3.46-2.973 6.242-6.002 8.176-6.097 3.892-16.097 4.39-27.058-.599l-.296-.134h-33.231l-34.348 10.715-.086-.051-.049-.03a22.458 22.458 0 01-1.749-1.177c-1.424-1.054-3.206-2.62-4.697-4.675-1.486-2.05-2.664-4.563-2.939-7.542-.274-2.968.337-6.515 2.612-10.665 4.11-7.489 11.046-9.903 16.756-9.977.267-.004.531-.002.79.005 1.194 1.868 2.56 3.361 3.928 4.297.966.66 2.074 1.14 3.209 1.11 1.241-.034 2.286-.674 2.952-1.783l.001-.002a2.72 2.72 0 00.384-1.685 3.086 3.086 0 00-.597-1.5c-.578-.798-1.5-1.422-2.5-1.897-1.472-.7-3.413-1.216-5.596-1.434a20.62 20.62 0 01-.478-.95c-2.58-5.469-3.576-13.545 1.16-21.402zm3.159 27.067a8.729 8.729 0 01-1.414-1.244 11.14 11.14 0 011.882.673c.781.37 1.191.722 1.353.94-.142.19-.261.214-.387.218-.254.006-.739-.111-1.434-.587zm56.329-7.258l.011-.012-.011.013z" fill="#FFCF2D"/><path d="M172.432 68.796l-8.356-22.187h-23.748l-1.862 22.187L148.7 98.21l23.732-29.414z" fill="#EBA690"/><path d="M153.253 64.101l-12.527 11.062-2.26-6.367 1.862-22.187h21.042v.413c-.016 6.638-2.992 12.909-8.117 17.079z" fill="#935D5D"/><path d="M169.503 42.295v.891a4.402 4.402 0 01-4.393 4.393h-4.775c-.891 6.765-6.685 12.001-13.688 12.001-3.82 0-7.274-1.544-9.773-4.043a13.772 13.772 0 01-4.043-9.773V36.47c14.691.112 18.909-11.969 18.909-11.969-.971 9.072 7.306 12.972 8.563 13.497v-.095h4.807a4.402 4.402 0 014.393 4.393z" fill="#EBA690"/><path d="M148.334 44.856c.536 0 .971-.762.971-1.703 0-.94-.435-1.703-.971-1.703s-.971.763-.971 1.703c0 .94.435 1.703.971 1.703zM135.076 44.856c.536 0 .971-.762.971-1.703 0-.94-.435-1.703-.971-1.703-.537 0-.971.763-.971 1.703 0 .94.434 1.703.971 1.703z" fill="#935D5D"/><path fill-rule="evenodd" clip-rule="evenodd" d="M147.551 33.799c.015-.828.85-1.472 1.527-1.472.795 0 1.616.18 2.379.394 1.303.367 3.013 1.103 4.415 2.592a1.5 1.5 0 01-1.333 2.509c1.033 1.41 1.63 3.215 1.63 5.093 0 4.135-2.898 7.914-6.959 7.914a6.28 6.28 0 01-1.803-.26c-.054.296-.197.58-.43.806-1.52 1.479-3.179 1.85-4.467 1.815a6.137 6.137 0 01-1.535-.238 5.331 5.331 0 01-.458-.156 3.422 3.422 0 01-.216-.092l-.002-.001c-.702-.232-1.299-1.203-.702-2.003.598-.8 1.243-1.056 1.986-.709l.015.007.016.006c.038.015.106.04.198.067.187.054.458.112.779.12.61.017 1.442-.137 2.294-.966a.864.864 0 01.054-.05c-1.453-1.292-2.41-3.215-2.637-5.303a2.175 2.175 0 00-.096-.026 1.519 1.519 0 00-.743-.016c-.39 3.761-3.153 7-6.912 7-4.062 0-6.96-3.78-6.96-7.915 0-1.846.578-3.621 1.579-5.021a1.5 1.5 0 01-1.649-2.422c1.402-1.489 3.113-2.224 4.416-2.592a11.239 11.239 0 011.651-.335c.241-.03.483-.054.725-.059h.002c.685.014 1.528.16 1.528 1.472.008.43-.165.82-.449 1.098 2.942.392 5.148 2.808 5.866 5.767a4.59 4.59 0 011.235.024c.7-2.92 2.849-5.318 5.726-5.77a1.5 1.5 0 01-.67-1.278zm-2.301 9.116c0-2.95 1.991-4.914 3.96-4.914 1.969 0 3.959 1.964 3.959 4.914 0 2.95-1.99 4.914-3.959 4.914s-3.96-1.964-3.96-4.914zm-14.659 0c0-2.95 1.991-4.914 3.96-4.914 1.969 0 3.959 1.964 3.959 4.914 0 2.95-1.99 4.915-3.959 4.915s-3.96-1.965-3.96-4.915z" fill="#935D5D"/><path d="M165.317 41.773a2.263 2.263 0 00-2.256 2.256 1.5 1.5 0 01-3 0 5.263 5.263 0 015.256-5.256 1.5 1.5 0 110 3z" fill="#935D5D"/></symbol></svg>